<?xml version="1.0" standalone="no"?>
  <!DOCTYPE svg PUBLIC "-//W3C//DTD SVG 1.1//EN" "http://www.w3.org/Graphics/SVG/1.1/DTD/svg11.dtd" >
  <svg>
  <metadata>
  Created by font-carrier
  </metadata>
  <defs>
  <font id="Cuprum-Italic" horiz-adv-x="990" vert-adv-y="990" >
    <font-face
      
      font-family="Cuprum"
      
      font-weight="400"
      
      font-stretch="normal"
      
      units-per-em="1000"
      
      ascent="895"
      
      descent="-260"
      
    />
      <missing-glyph />

      

      
      <glyph glyph-name="uni21" unicode="&#x21;" d="M105 185L183 700L293 700L185 185L105 185M176 105L157-5L67-5L86 105L176 105Z"  horiz-adv-x="230" vert-adv-y="1000"  />

      
      <glyph glyph-name="uni22" unicode="&#x22;" d="M163 700L263 700L196 465L146 465L163 700M313 700L413 700L346 465L296 465L313 700Z"  horiz-adv-x="330" vert-adv-y="1000"  />

      
      <glyph glyph-name="uni23" unicode="&#x23;" d="M440 200L375 0L285 0L350 200L240 200L175 0L85 0L150 200L55 200L67 270L172 270L225 430L125 430L138 500L253 500L318 700L408 700L343 500L453 500L518 700L608 700L543 500L638 500L625 430L515 430L462 270L567 270L555 200L440 200M257 270L377 270L430 430L310 430L257 270Z"  horiz-adv-x="570" vert-adv-y="1000"  />

      
      <glyph glyph-name="uni24" unicode="&#x24;" d="M128 530Q142 611 187.50 655.50Q233 700 314 708L329 790L389 790L375 709Q413 707 445.50 701.50Q478 696 496 690L488 645L363 645L317 385Q343 372 369 357Q395 342 414 319Q433 296 441.50 262.50Q450 229 441 180Q426 96 381.50 50.50Q337 5 248-6L234-90L174-90L188-10L183-10Q138-10 98-4Q58 2 36 10L44 55L199 55L246 319Q220 332 195 347.50Q170 363 152 387Q134 411 126.50 445Q119 479 128 530M351 180Q359 222 343 247Q327 272 300 289L261 66Q301 80 322 107.50Q343 135 351 180M218 530Q214 508 216 491Q218 474 224 460.50Q230 447 240 436.50Q250 426 263 417L302 636Q233 614 218 530Z"  horiz-adv-x="445" vert-adv-y="1000"  />

      
      <glyph glyph-name="uni25" unicode="&#x25;" d="M703 700L190 0L100 0L613 700L703 700M599 140Q608 189 594 209.50Q580 230 550 230Q520 230 499 209.50Q478 189 469 140Q461 91 474.50 70.50Q488 50 518 50Q548 50 569.50 70.50Q591 91 599 140M674 140Q661 65 618.50 27.50Q576-10 508-10Q440-10 410.50 27.50Q381 65 394 140Q408 215 450.50 252.50Q493 290 561 290Q629 290 658.50 252.50Q688 215 674 140M333 560Q342 609 328 629.50Q314 650 284 650Q254 650 233 629.50Q212 609 203 560Q195 511 208.50 490.50Q222 470 252 470Q282 470 303.50 490.50Q325 511 333 560M408 560Q395 485 352.50 447.50Q310 410 242 410Q174 410 144.50 447.50Q115 485 128 560Q142 635 184.50 672.50Q227 710 295 710Q363 710 392.50 672.50Q422 635 408 560Z"  horiz-adv-x="680" vert-adv-y="1000"  />

      
      <glyph glyph-name="uni26" unicode="&#x26;" d="M405 0L364 80Q347 57 330.50 40.50Q314 24 295 12.50Q276 1 251.50-4.50Q227-10 193-10Q118-10 83.50 36Q49 82 66 180Q74 225 87.50 266Q101 307 113 330L183 330L156 180Q149 141 151.50 116.50Q154 92 162 78.50Q170 65 181.50 60Q193 55 204 55Q219 55 231.50 59.50Q244 64 257.50 75.50Q271 87 286.50 107.50Q302 128 323 160Q282 237 257.50 291.50Q233 346 221 388Q209 430 208 463Q207 496 213 530Q229 621 280.50 665.50Q332 710 415 710Q460 710 500 704Q540 698 561 690L553 645L423 645Q378 645 345.50 616Q313 587 303 530Q299 506 298 481Q297 456 303.50 424.50Q310 393 326.50 352Q343 311 374 255L453 390L543 390L414 170L505 0L405 0Z"  horiz-adv-x="515" vert-adv-y="1000"  />

      
      <glyph glyph-name="uni27" unicode="&#x27;" d="M163 700L263 700L196 465L146 465L163 700Z"  horiz-adv-x="180" vert-adv-y="1000"  />

      
      <glyph glyph-name="uni28" unicode="&#x28;" d="M99 280Q108 329 124 383Q140 437 166 496Q192 555 230.50 618.50Q269 682 322 750L372 720Q338 667 311 616Q284 565 263 511.50Q242 458 226 401Q210 344 199 280Q188 216 183.50 159Q179 102 181.50 48.50Q184-5 193-56.50Q202-108 217-160L156-190Q127-123 111-59Q95 5 89.50 64Q84 123 87 177Q90 231 99 280Z"  horiz-adv-x="246" vert-adv-y="1000"  />

      
      <glyph glyph-name="uni29" unicode="&#x29;" d="M245 280Q236 231 220 177Q204 123 178 64Q152 5 113.50-59Q75-123 22-190L-28-160Q6-108 33-56.50Q60-5 81 48.50Q102 102 118 159Q134 216 145 280Q156 344 160.50 401Q165 458 162.50 511.50Q160 565 151 616Q142 667 126 720L188 750Q217 682 233 618.50Q249 555 254.50 496Q260 437 257 383Q254 329 245 280Z"  horiz-adv-x="246" vert-adv-y="1000"  />

      
      <glyph glyph-name="uni2a" unicode="&#x2a;" d="M295 455L202 325L143 360L236 490L110 515L139 585L272 555L298 700L378 700L352 555L497 585L500 515L366 490L413 360L342 325L295 455Z"  horiz-adv-x="430" vert-adv-y="1000"  />

      
      <glyph glyph-name="uni2b" unicode="&#x2b;" d="M343 500L314 335L459 335L446 265L301 265L272 100L192 100L221 265L76 265L89 335L234 335L263 500L343 500Z"  horiz-adv-x="430" vert-adv-y="1000"  />

      
      <glyph glyph-name="uni2c" unicode="&#x2c;" d="M58 105L153 105L84-115L19-115L58 105Z"  horiz-adv-x="170" vert-adv-y="1000"  />

      
      <glyph glyph-name="uni2d" unicode="&#x2d;" d="M89 335L389 335L376 265L76 265L89 335Z"  horiz-adv-x="360" vert-adv-y="1000"  />

      
      <glyph glyph-name="uni2e" unicode="&#x2e;" d="M148 105L129-5L39-5L58 105L148 105Z"  horiz-adv-x="170" vert-adv-y="1000"  />

      
      <glyph glyph-name="uni2f" unicode="&#x2f;" d="M513 700L90 0L0 0L423 700L513 700Z"  horiz-adv-x="390" vert-adv-y="1000"  />

      
      <glyph glyph-name="uni30" unicode="&#x30;" d="M380 710Q427 710 462 693Q497 676 516.50 635Q536 594 538 524.50Q540 455 521 350Q503 245 476 175.50Q449 106 415.50 65Q382 24 341 7Q300-10 253-10Q206-10 171 7Q136 24 116.50 65Q97 106 95 175.50Q93 245 111 350Q130 455 156.50 524.50Q183 594 217 635Q251 676 292 693Q333 710 380 710M263 50Q284 50 306.50 63Q329 76 351.50 110Q374 144 394.50 202Q415 260 431 350Q447 440 447 498Q447 556 436.50 590Q426 624 408 637Q390 650 369 650Q348 650 325.50 637Q303 624 280.50 590Q258 556 237.50 498Q217 440 201 350Q185 260 185 202Q185 144 195.50 110Q206 76 224 63Q242 50 263 50Z"  horiz-adv-x="510" vert-adv-y="1000"  />

      
      <glyph glyph-name="uni31" unicode="&#x31;" d="M333 700L210 0L120 0L231 630L121 630L129 680Q153 688 195.50 694Q238 700 283 700L333 700Z"  horiz-adv-x="280" vert-adv-y="1000"  />

      
      <glyph glyph-name="uni32" unicode="&#x32;" d="M24 80Q85 142 132 190Q179 238 214.50 275.50Q250 313 275 342.50Q300 372 317 398Q334 424 343.50 448Q353 472 358 500Q372 579 349 612Q326 645 273 645L133 645L141 690Q165 698 207.50 704Q250 710 295 710Q393 710 430.50 661.50Q468 613 448 500Q439 451 416.50 409Q394 367 354 319Q314 271 255.50 211.50Q197 152 117 70L372 70L360 0L10 0L24 80Z"  horiz-adv-x="390" vert-adv-y="1000"  />

      
      <glyph glyph-name="uni33" unicode="&#x33;" d="M300 710Q480 710 447 525Q437 468 408 431.50Q379 395 330 372L329 368Q358 360 376 342.50Q394 325 403 301Q412 277 412.50 248.50Q413 220 408 190Q399 137 380.50 99.50Q362 62 332.50 37.50Q303 13 261 1.50Q219-10 163-10Q118-10 78-4Q38 2 16 10L24 55L154 55Q229 55 267 86.50Q305 118 318 190Q332 265 305 297.50Q278 330 203 330L133 330L145 400L205 400Q273 400 309.50 430.50Q346 461 357 525Q368 585 344.50 615Q321 645 268 645L138 645L146 690Q170 698 212.50 704Q255 710 300 710Z"  horiz-adv-x="415" vert-adv-y="1000"  />

      
      <glyph glyph-name="uni34" unicode="&#x34;" d="M61 180L75 260L403 700L503 700L424 250L484 250L471 180L411 180L380 0L290 0L321 180L61 180M383 555L159 250L334 250L387 555L383 555Z"  horiz-adv-x="470" vert-adv-y="1000"  />

      
      <glyph glyph-name="uni35" unicode="&#x35;" d="M222 410L267 410Q323 410 361 398.50Q399 387 419.50 361.50Q440 336 445 296Q450 256 440 200Q430 144 411 104Q392 64 362.50 38.50Q333 13 291 1.50Q249-10 193-10Q148-10 108-4Q68 2 46 10L54 55L184 55Q259 55 297.50 88Q336 121 350 200Q364 279 337 312Q310 345 235 345L120 345L183 700L508 700L496 635L261 635L222 410Z"  horiz-adv-x="445" vert-adv-y="1000"  />

      
      <glyph glyph-name="uni36" unicode="&#x36;" d="M370 710Q415 710 455 704Q495 698 516 690L508 645L378 645Q350 645 325 632.50Q300 620 278.50 591.50Q257 563 239.50 516Q222 469 210 400Q234 408 269 414Q304 420 334 420Q371 420 399 408Q427 396 442.50 370Q458 344 461.50 302Q465 260 455 200Q435 87 381 38.50Q327-10 233-10Q139-10 102 38.50Q65 87 85 200L124 420Q138 499 160.50 554Q183 609 214 643.50Q245 678 284 694Q323 710 370 710M203 360L175 200Q167 159 169 130.50Q171 102 180.50 84Q190 66 206 58Q222 50 243 50Q264 50 282.50 58Q301 66 317 84Q333 102 345 130.50Q357 159 365 200Q381 290 356.50 325Q332 360 268 360L203 360Z"  horiz-adv-x="455" vert-adv-y="1000"  />

      
      <glyph glyph-name="uni37" unicode="&#x37;" d="M489 620Q392 454 320 298.50Q248 143 200 0L110 0Q204 285 401 630L131 630L143 700L503 700L489 620Z"  horiz-adv-x="410" vert-adv-y="1000"  />

      
      <glyph glyph-name="uni38" unicode="&#x38;" d="M365 710Q459 710 496.50 666Q534 622 519 535Q513 500 498.50 472Q484 444 465 423Q446 402 424.50 388Q403 374 384 367L384 363Q404 353 422.50 337Q441 321 454 298Q467 275 472 245.50Q477 216 471 180Q454 82 398.50 36Q343-10 238-10Q132-10 93 36Q54 82 71 180Q77 216 93 245.50Q109 275 130 298Q151 321 175.50 337Q200 353 224 363L224 367Q207 374 190.50 388Q174 402 163 423Q152 444 147.50 472Q143 500 149 535Q179 710 365 710M248 50Q301 50 335 81Q369 112 381 180Q386 208 382 230Q378 252 366.50 269.50Q355 287 337 300.50Q319 314 297 325Q244 302 207.50 269.50Q171 237 161 180Q149 112 172 81Q195 50 248 50M311 405Q355 420 387 451Q419 482 429 535Q439 592 417.50 621Q396 650 354 650Q312 650 280.50 621Q249 592 239 535Q229 482 250.50 451Q272 420 311 405Z"  horiz-adv-x="480" vert-adv-y="1000"  />

      
      <glyph glyph-name="uni39" unicode="&#x39;" d="M208-10Q163-10 123-4Q83 2 61 10L69 55L199 55Q227 55 252.50 67.50Q278 80 299.50 108.50Q321 137 338 184Q355 231 367 300Q344 292 309 286Q274 280 244 280Q206 280 178.50 292Q151 304 135 330Q119 356 115.50 398Q112 440 123 500Q142 612 196.50 661Q251 710 345 710Q439 710 476 661.50Q513 613 493 500L454 280Q440 201 417.50 146Q395 91 364 56.50Q333 22 294 6Q255-10 208-10M374 340L403 500Q410 541 408 569.50Q406 598 396.50 616Q387 634 371 642Q355 650 334 650Q293 650 260 616Q227 582 213 500Q197 410 221 375Q245 340 309 340L374 340Z"  horiz-adv-x="455" vert-adv-y="1000"  />

      
      <glyph glyph-name="uni3a" unicode="&#x3a;" d="M148 105L129-5L39-5L58 105L148 105M218 500L198 390L108 390L128 500L218 500Z"  horiz-adv-x="170" vert-adv-y="1000"  />

      
      <glyph glyph-name="uni3b" unicode="&#x3b;" d="M218 500L198 390L108 390L128 500L218 500M58 105L153 105L84-115L19-115L58 105Z"  horiz-adv-x="165" vert-adv-y="1000"  />

      
      <glyph glyph-name="uni3c" unicode="&#x3c;" d="M173 249L378 105L361 10L77 210L92 295L447 495L430 400L175 256L173 249Z"  horiz-adv-x="400" vert-adv-y="1000"  />

      
      <glyph glyph-name="uni3d" unicode="&#x3d;" d="M444 250L430 175L60 175L74 250L444 250M474 425L461 350L91 350L104 425L474 425Z"  horiz-adv-x="430" vert-adv-y="1000"  />

      
      <glyph glyph-name="uni3e" unicode="&#x3e;" d="M315 256L110 400L127 495L412 295L397 210L41 10L58 105L313 249L315 256Z"  horiz-adv-x="400" vert-adv-y="1000"  />

      
      <glyph glyph-name="uni3f" unicode="&#x3f;" d="M137 185Q145 229 161.50 261Q178 293 198.50 318.50Q219 344 241.50 365.50Q264 387 284 409.50Q304 432 319.50 458.50Q335 485 341 520Q352 584 329 614.50Q306 645 253 645L123 645L131 690Q155 698 197.50 704Q240 710 285 710Q376 710 412 664Q448 618 431 520Q424 478 407 446.50Q390 415 368 390Q346 365 322.50 343.50Q299 322 277.50 298.50Q256 275 239.50 248Q223 221 217 185L137 185M208 105L189-5L99-5L118 105L208 105Z"  horiz-adv-x="370" vert-adv-y="1000"  />

      
      <glyph glyph-name="uni40" unicode="&#x40;" d="M534 480Q504 480 480 471.50Q456 463 437 441.50Q418 420 404.50 383Q391 346 381 290Q373 249 375 220.50Q377 192 386 174Q395 156 410 148Q425 140 444 140Q463 140 484 146Q505 152 518 160L574 480L534 480M607 155Q633 155 655 164Q677 173 695.50 196.50Q714 220 728.50 260.50Q743 301 754 365Q778 505 719 577.50Q660 650 524 650Q460 650 407 632Q354 614 312 573.50Q270 533 240 468.50Q210 404 194 310Q178 218 185.50 154Q193 90 224.50 50.50Q256 11 311-7Q366-25 445-25L575-25L567-70Q543-78 501-84Q459-90 414-90Q226-90 147.50 8.50Q69 107 104 310Q140 512 251 611Q362 710 535 710Q625 710 690 686.50Q755 663 794 618.50Q833 574 845.50 510Q858 446 844 365Q830 288 807.50 235.50Q785 183 747.50 150.50Q710 118 654.50 104Q599 90 520 90L521 120L516 120Q493 101 463.50 90.50Q434 80 404 80Q374 80 349 91.50Q324 103 307.50 128.50Q291 154 286 194Q281 234 291 290Q303 361 323.50 409Q344 457 374.50 486Q405 515 447 527.50Q489 540 545 540Q560 540 577.50 538.50Q595 537 612.50 534Q630 531 645 527.50Q660 524 671 520L607 155Z"  horiz-adv-x="830" vert-adv-y="1000"  />

      
      <glyph glyph-name="uni41" unicode="&#x41;" d="M186 180L110 0L20 0L313 700L443 700L490 0L400 0L386 180L186 180M362 600L358 600L214 250L384 250L362 600Z"  horiz-adv-x="510" vert-adv-y="1000"  />

      
      <glyph glyph-name="uni42" unicode="&#x42;" d="M415 373Q472 356 488.50 307Q505 258 493 190Q484 137 465 99.50Q446 62 414.50 37.50Q383 13 337.50 1.50Q292-10 228-10Q183-10 145-5.50Q107-1 71 10L191 690Q231 701 270.50 705.50Q310 710 355 710Q460 710 499 664.50Q538 619 522 525Q514 480 490 441Q466 402 416 377L415 373M219 335L169 55L239 55Q314 55 352 86.50Q390 118 403 190Q417 269 390.50 302Q364 335 289 335L219 335M290 400Q410 400 432 525Q453 645 333 645L273 645L230 400L290 400Z"  horiz-adv-x="500" vert-adv-y="1000"  />

      
      <glyph glyph-name="uni43" unicode="&#x43;" d="M268-10Q215-10 177.50 7Q140 24 119 65Q98 106 95.50 175.50Q93 245 111 350Q130 455 156.50 524.50Q183 594 217.50 635Q252 676 294 693Q336 710 385 710Q430 710 470 704Q510 698 531 690L523 645L393 645Q363 645 335 632Q307 619 282.50 585.50Q258 552 237.50 495Q217 438 201 350Q186 262 186.50 205Q187 148 201 114.50Q215 81 240 68Q265 55 299 55L429 55L421 10Q398 2 355.50-4Q313-10 268-10Z"  horiz-adv-x="435" vert-adv-y="1000"  />

      
      <glyph glyph-name="uni44" unicode="&#x44;" d="M531 350Q513 245 485.50 175.50Q458 106 421 65Q384 24 336 7Q288-10 228-10Q183-10 145-5.50Q107-1 71 10L191 690Q231 701 270.50 705.50Q310 710 355 710Q415 710 457 693Q499 676 521.50 635Q544 594 547 524.50Q550 455 531 350M441 350Q457 438 456 495Q455 552 441.50 585.50Q428 619 402.50 632Q377 645 343 645L273 645L169 55L239 55Q273 55 303 68Q333 81 358.50 114.50Q384 148 405 205Q426 262 441 350Z"  horiz-adv-x="520" vert-adv-y="1000"  />

      
      <glyph glyph-name="uni45" unicode="&#x45;" d="M172 70L422 70L410 0L70 0L193 700L533 700L521 630L271 630L230 400L450 400L438 330L218 330L172 70Z"  horiz-adv-x="450" vert-adv-y="1000"  />

      
      <glyph glyph-name="uni46" unicode="&#x46;" d="M160 0L70 0L193 700L533 700L521 630L271 630L227 385L437 385L425 315L215 315L160 0Z"  horiz-adv-x="430" vert-adv-y="1000"  />

      
      <glyph glyph-name="uni47" unicode="&#x47;" d="M441 10Q418 2 375.50-4Q333-10 288-10Q228-10 186 7Q144 24 121 65Q98 106 95.50 175.50Q93 245 111 350Q130 455 157 524.50Q184 594 219.50 635Q255 676 298.50 693Q342 710 395 710Q440 710 480 704Q520 698 541 690L533 645L403 645Q369 645 339 632Q309 619 283.50 585.50Q258 552 237.50 495Q217 438 201 350Q186 262 187 205Q188 148 203.50 114.50Q219 81 248.50 68Q278 55 319 55L359 55L417 380L507 380L441 10Z"  horiz-adv-x="500" vert-adv-y="1000"  />

      
      <glyph glyph-name="uni48" unicode="&#x48;" d="M583 700L460 0L370 0L426 320L216 320L160 0L70 0L193 700L283 700L228 390L438 390L493 700L583 700Z"  horiz-adv-x="530" vert-adv-y="1000"  />

      
      <glyph glyph-name="uni49" unicode="&#x49;" d="M283 700L160 0L70 0L193 700L283 700Z"  horiz-adv-x="230" vert-adv-y="1000"  />

      
      <glyph glyph-name="uni4a" unicode="&#x4a;" d="M99 55Q125 55 147 63.50Q169 72 187 93Q205 114 218.50 150Q232 186 242 240L323 700L413 700L332 240Q319 169 299 121Q279 73 249.50 44Q220 15 180 2.50Q140-10 88-10Q65-10 42-4Q19 2 1 10L9 55L99 55Z"  horiz-adv-x="350" vert-adv-y="1000"  />

      
      <glyph glyph-name="uni4b" unicode="&#x4b;" d="M480 0L375 0L221 350L160 0L70 0L193 700L283 700L223 360L478 700L583 700L317 355L480 0Z"  horiz-adv-x="490" vert-adv-y="1000"  />

      
      <glyph glyph-name="uni4c" unicode="&#x4c;" d="M172 70L422 70L410 0L70 0L193 700L283 700L172 70Z"  horiz-adv-x="420" vert-adv-y="1000"  />

      
      <glyph glyph-name="uni4d" unicode="&#x4d;" d="M340 90L271 520L266 520L145 0L55 0L218 700L328 700L406 220L410 220L658 700L768 700L685 0L595 0L656 520L651 520L430 90L340 90Z"  horiz-adv-x="740" vert-adv-y="1000"  />

      
      <glyph glyph-name="uni4e" unicode="&#x4e;" d="M160 0L70 0L193 700L293 700L411 205L416 205L503 700L593 700L470 0L370 0L252 495L247 495L160 0Z"  horiz-adv-x="540" vert-adv-y="1000"  />

      
      <glyph glyph-name="uni4f" unicode="&#x4f;" d="M390 710Q441 710 478 693Q515 676 535 635Q555 594 557.50 524.50Q560 455 541 350Q523 245 496 175.50Q469 106 434 65Q399 24 356.50 7Q314-10 263-10Q212-10 175 7Q138 24 118 65Q98 106 95.50 175.50Q93 245 111 350Q130 455 157 524.50Q184 594 219 635Q254 676 296.50 693Q339 710 390 710M273 50Q297 50 322 63Q347 76 370.50 110Q394 144 414.50 202Q435 260 451 350Q467 440 467 498Q467 556 455.50 590Q444 624 423.50 637Q403 650 379 650Q355 650 330 637Q305 624 281.50 590Q258 556 237.50 498Q217 440 201 350Q185 260 185.50 202Q186 144 197 110Q208 76 228.50 63Q249 50 273 50Z"  horiz-adv-x="530" vert-adv-y="1000"  />

      
      <glyph glyph-name="uni50" unicode="&#x50;" d="M278 275Q312 275 338 283.50Q364 292 383.50 313Q403 334 417 370Q431 406 441 460Q450 514 448.50 550Q447 586 435 607Q423 628 400 636.50Q377 645 343 645L273 645L208 275L278 275M160 0L70 0L191 690Q231 701 270.50 705.50Q310 710 355 710Q415 710 454.50 697.50Q494 685 515 656Q536 627 539.50 579Q543 531 531 460Q518 387 498 338Q478 289 449.50 259.50Q421 230 383 217.50Q345 205 296 205Q273 205 244.50 208Q216 211 197 215L160 0Z"  horiz-adv-x="490" vert-adv-y="1000"  />

      
      <glyph glyph-name="uni51" unicode="&#x51;" d="M390 710Q441 710 478 693Q515 676 535 635Q555 594 557.50 524.50Q560 455 541 350Q521 234 490 162.50Q459 91 418 50Q456 50 485 44Q514 38 535 30L528-10L263-10Q212-10 175 7Q138 24 118 65Q98 106 95.50 175.50Q93 245 111 350Q130 455 157 524.50Q184 594 219 635Q254 676 296.50 693Q339 710 390 710M273 50Q297 50 322 63Q347 76 370.50 110Q394 144 414.50 202Q435 260 451 350Q467 440 467 498Q467 556 455.50 590Q444 624 423.50 637Q403 650 379 650Q355 650 330 637Q305 624 281.50 590Q258 556 237.50 498Q217 440 201 350Q185 260 185.50 202Q186 144 197 110Q208 76 228.50 63Q249 50 273 50Z"  horiz-adv-x="540" vert-adv-y="1000"  />

      
      <glyph glyph-name="uni52" unicode="&#x52;" d="M532 470Q523 419 510 382Q497 345 480 318.50Q463 292 441.50 275.50Q420 259 394 250L470 0L370 0L300 230L200 230L160 0L70 0L191 690Q231 701 270.50 705.50Q310 710 355 710Q415 710 454.50 698Q494 686 515.50 657.50Q537 629 540.50 583Q544 537 532 470M282 300Q316 300 342 308.50Q368 317 387.50 336.50Q407 356 420 388.50Q433 421 442 470Q451 521 449.50 554.50Q448 588 435.50 608Q423 628 400 636.50Q377 645 343 645L273 645L212 300L282 300Z"  horiz-adv-x="505" vert-adv-y="1000"  />

      
      <glyph glyph-name="uni53" unicode="&#x53;" d="M128 530Q144 621 198 665.50Q252 710 350 710Q395 710 435 704Q475 698 496 690L488 645L358 645Q238 645 218 530Q210 484 226 457Q242 430 270.50 411.50Q299 393 333 377.50Q367 362 394.50 338.50Q422 315 437 278Q452 241 441 180Q432 131 414 95.50Q396 60 365 36.50Q334 13 289.50 1.50Q245-10 183-10Q138-10 98-4Q58 2 36 10L44 55L174 55Q260 55 300 85.50Q340 116 351 180Q359 224 342 249Q325 274 296.50 291.50Q268 309 234 325Q200 341 172.50 365Q145 389 131 427.50Q117 466 128 530Z"  horiz-adv-x="445" vert-adv-y="1000"  />

      
      <glyph glyph-name="uni54" unicode="&#x54;" d="M133 700L543 700L531 630L371 630L260 0L170 0L281 630L121 630L133 700Z"  horiz-adv-x="430" vert-adv-y="1000"  />

      
      <glyph glyph-name="uni55" unicode="&#x55;" d="M268 50Q294 50 316 58.50Q338 67 356 88.50Q374 110 388 147Q402 184 412 240L493 700L583 700L502 240Q489 169 469 121Q449 73 419.50 44Q390 15 350 2.50Q310-10 258-10Q205-10 169.50 2.50Q134 15 114.50 44Q95 73 92 121Q89 169 102 240L183 700L273 700L192 240Q182 184 182.50 147Q183 110 193.50 88.50Q204 67 223 58.50Q242 50 268 50Z"  horiz-adv-x="520" vert-adv-y="1000"  />

      
      <glyph glyph-name="uni56" unicode="&#x56;" d="M259 95L263 95L503 700L593 700L310 0L180 0L143 700L233 700L259 95Z"  horiz-adv-x="490" vert-adv-y="1000"  />

      
      <glyph glyph-name="uni57" unicode="&#x57;" d="M505 570L543 160L548 160L733 700L823 700L585 0L475 0L436 420L432 420L245 0L135 0L143 700L233 700L228 160L233 160L415 570L505 570Z"  horiz-adv-x="720" vert-adv-y="1000"  />

      
      <glyph glyph-name="uni58" unicode="&#x58;" d="M463 700L553 700L358 360L445 0L355 0L282 300L105 0L15 0L228 360L153 700L243 700L304 420L463 700Z"  horiz-adv-x="460" vert-adv-y="1000"  />

      
      <glyph glyph-name="uni59" unicode="&#x59;" d="M473 700L563 700L308 220L270 0L180 0L218 220L133 700L223 700L285 345L473 700Z"  horiz-adv-x="450" vert-adv-y="1000"  />

      
      <glyph glyph-name="uni5a" unicode="&#x5a;" d="M137 70L392 70L380 0L20 0L31 65L391 630L136 630L148 700L508 700L496 635L137 70Z"  horiz-adv-x="405" vert-adv-y="1000"  />

      
      <glyph glyph-name="uni5b" unicode="&#x5b;" d="M379 680L279 680L138-120L238-120L228-180L38-180L200 740L390 740L379 680Z"  horiz-adv-x="260" vert-adv-y="1000"  />

      
      <glyph glyph-name="uni5c" unicode="&#x5c;" d="M213 700L390 0L300 0L123 700L213 700Z"  horiz-adv-x="390" vert-adv-y="1000"  />

      
      <glyph glyph-name="uni5d" unicode="&#x5d;" d="M130 740L320 740L158-180L-31-180L-21-120L78-120L219 680L119 680L130 740Z"  horiz-adv-x="260" vert-adv-y="1000"  />

      
      <glyph glyph-name="uni5e" unicode="&#x5e;" d="M167 410L109 450L303 700L388 700L494 450L422 410L332 610L327 610L167 410Z"  horiz-adv-x="445" vert-adv-y="1000"  />

      
      <glyph glyph-name="uni5f" unicode="&#x5f;" d="M0 0L300 0L287-70L-12-70L0 0Z"  horiz-adv-x="300" vert-adv-y="1000"  />

      
      <glyph glyph-name="uni60" unicode="&#x60;" d="M185 540L143 700L238 700L245 540L185 540Z"  horiz-adv-x="170" vert-adv-y="1000"  />

      
      <glyph glyph-name="uni61" unicode="&#x61;" d="M400 0L325 0L325 30L320 30Q297 11 267.50 0.50Q238-10 208-10Q169-10 140 2.50Q111 15 95.50 45Q80 75 77.50 125Q75 175 89 250Q102 325 122 375Q142 425 171.50 455Q201 485 239.50 497.50Q278 510 329 510Q374 510 411.50 502.50Q449 495 484 480L400 0M319 450Q295 450 274 441Q253 432 235.50 409.50Q218 387 203.50 348.50Q189 310 179 250Q168 190 168.50 151Q169 112 178.50 89.50Q188 67 206 58.50Q224 50 248 50Q267 50 288 56Q309 62 322 70L389 450L319 450Z"  horiz-adv-x="465" vert-adv-y="1000"  />

      
      <glyph glyph-name="uni62" unicode="&#x62;" d="M245 485Q270 496 294.50 503Q319 510 349 510Q388 510 417 497.50Q446 485 461.50 455Q477 425 479.50 375Q482 325 469 250Q455 175 435 125Q415 75 385.50 45Q356 15 317.50 2.50Q279-10 228-10Q183-10 145.50-2.50Q108 5 73 20L193 700L283 700L245 485M168 50L238 50Q262 50 283 58.50Q304 67 322 89.50Q340 112 354 151Q368 190 379 250Q389 310 389 348.50Q389 387 379 409.50Q369 432 351 441Q333 450 309 450Q290 450 269 444Q248 438 235 430L168 50Z"  horiz-adv-x="470" vert-adv-y="1000"  />

      
      <glyph glyph-name="uni63" unicode="&#x63;" d="M329 450Q301 450 278 441Q255 432 236.50 409.50Q218 387 203.50 348.50Q189 310 179 250Q168 190 168.50 151Q169 112 180.50 89.50Q192 67 214 58.50Q236 50 268 50L368 50L361 10Q338 2 303-4Q268-10 238-10Q187-10 152.50 2.50Q118 15 99.50 45Q81 75 78 125Q75 175 89 250Q102 325 122 375Q142 425 170 455Q198 485 235 497.50Q272 510 319 510Q349 510 382 504Q415 498 436 490L429 450L329 450Z"  horiz-adv-x="375" vert-adv-y="1000"  />

      
      <glyph glyph-name="uni64" unicode="&#x64;" d="M320 30Q297 11 267.50 0.50Q238-10 208-10Q169-10 140 2.50Q111 15 95.50 45Q80 75 77.50 125Q75 175 89 250Q102 325 121.50 375Q141 425 167.50 455Q194 485 227 497.50Q260 510 299 510Q329 510 352 503Q375 496 395 485L433 700L523 700L400 0L325 0L325 30L320 30M385 430Q375 438 356.50 444Q338 450 319 450Q295 450 274 441Q253 432 235.50 409.50Q218 387 203.50 348.50Q189 310 179 250Q168 190 168.50 151Q169 112 178.50 89.50Q188 67 206 58.50Q224 50 248 50Q267 50 288 56Q309 62 322 70L385 430Z"  horiz-adv-x="470" vert-adv-y="1000"  />

      
      <glyph glyph-name="uni65" unicode="&#x65;" d="M277 270Q319 270 344 291Q369 312 376 350Q385 399 364.50 427Q344 455 310 455Q289 455 270.50 446.50Q252 438 235.50 417Q219 396 205.50 360Q192 324 182 270L277 270M172 210Q155 120 181.50 85Q208 50 283 50L383 50L376 10Q353 2 318-4Q283-10 253-10Q197-10 159 2.50Q121 15 101 45Q81 75 78 125Q75 175 89 250Q102 325 122 375Q142 425 170 455Q198 485 235 497.50Q272 510 319 510Q406 510 443 467.50Q480 425 466 350Q454 282 407.50 246Q361 210 267 210L172 210Z"  horiz-adv-x="430" vert-adv-y="1000"  />

      
      <glyph glyph-name="uni66" unicode="&#x66;" d="M173 530Q182 582 198.50 615.50Q215 649 237 667.50Q259 686 286 693Q313 700 343 700Q354 700 369 698.50Q384 697 399 694Q414 691 427 687.50Q440 684 449 680L442 640L352 640Q341 640 328 635.50Q315 631 302.50 619Q290 607 279.50 585.50Q269 564 263 530L256 490L396 490L388 445Q364 437 329 431Q294 425 264 425L244 425L162-40Q153-93 136.50-126Q120-159 98-177.50Q76-196 49.50-203Q23-210-7-210Q-18-210-33-208.50Q-48-207-63-204Q-78-201-91-197.50Q-104-194-113-190L-106-150L-16-150Q-5-150 8-145.50Q21-141 33.50-129Q46-117 56-95.50Q66-74 72-40L154 425L94 425L106 490L166 490L173 530Z"  horiz-adv-x="320" vert-adv-y="1000"  />

      
      <glyph glyph-name="uni67" unicode="&#x67;" d="M312 15Q288 4 263-3Q238-10 208-10Q169-10 140 2.50Q111 15 95.50 45Q80 75 77.50 125Q75 175 89 250Q102 325 122 375Q142 425 171.50 455Q201 485 239.50 497.50Q278 510 329 510Q374 510 411.50 502.50Q449 495 484 480L407 40Q394-31 374-79Q354-127 324.50-156Q295-185 254.50-197.50Q214-210 162-210Q132-210 99.50-204Q67-198 46-190L53-150L153-150Q187-150 213-142Q239-134 258-114.50Q277-95 290.50-63.50Q304-32 312 15M389 450L319 450Q295 450 274 441Q253 432 235.50 409.50Q218 387 203.50 348.50Q189 310 179 250Q168 190 168.50 151Q169 112 178.50 89.50Q188 67 206 58.50Q224 50 248 50Q267 50 288 56Q309 62 322 70L389 450Z"  horiz-adv-x="465" vert-adv-y="1000"  />

      
      <glyph glyph-name="uni68" unicode="&#x68;" d="M160 0L70 0L193 700L283 700L245 485Q270 496 297.50 503Q325 510 359 510Q391 510 416.50 503.50Q442 497 458.50 480Q475 463 480.50 434Q486 405 478 360L415 0L325 0L388 360Q392 386 388 403.50Q384 421 373.50 431.50Q363 442 346.50 446Q330 450 309 450Q290 450 269 444Q248 438 235 430L160 0Z"  horiz-adv-x="480" vert-adv-y="1000"  />

      
      <glyph glyph-name="uni69" unicode="&#x69;" d="M160 0L70 0L158 500L248 500L160 0M279 680L260 570L170 570L189 680L279 680Z"  horiz-adv-x="230" vert-adv-y="1000"  />

      
      <glyph glyph-name="uni6a" unicode="&#x6a;" d="M162-40Q153-93 136.50-126Q120-159 98-177.50Q76-196 49.50-203Q23-210-7-210Q-30-210-53-204Q-76-198-93-190L-86-150L-16-150Q-5-150 8-145.50Q21-141 33.50-129Q46-117 56-95.50Q66-74 72-40L168 500L258 500L162-40M289 680L270 570L180 570L199 680L289 680Z"  horiz-adv-x="240" vert-adv-y="1000"  />

      
      <glyph glyph-name="uni6b" unicode="&#x6b;" d="M205 260L160 0L70 0L193 700L283 700L207 270L393 500L493 500L296 265L425 0L325 0L205 260Z"  horiz-adv-x="435" vert-adv-y="1000"  />

      
      <glyph glyph-name="uni6c" unicode="&#x6c;" d="M193 700L283 700L160 0L70 0L193 700Z"  horiz-adv-x="230" vert-adv-y="1000"  />

      
      <glyph glyph-name="uni6d" unicode="&#x6d;" d="M390 0L300 0L363 360Q367 386 363.50 403.50Q360 421 350.50 431.50Q341 442 327.50 446Q314 450 299 450Q280 450 261.50 444Q243 438 230 430L155 0L65 0L153 500L228 500L227 470L232 470Q255 489 280 499.50Q305 510 339 510Q373 510 400.50 500.50Q428 491 444 466Q458 477 475.50 485Q493 493 510.50 498.50Q528 504 544.50 507Q561 510 574 510Q604 510 628.50 503.50Q653 497 669 480Q685 463 690.50 434Q696 405 688 360L625 0L535 0L598 360Q602 386 598.50 403.50Q595 421 585.50 431.50Q576 442 562.50 446Q549 450 534 450Q511 450 489.50 444Q468 438 455 430Q457 419 457 401Q457 383 453 360L390 0Z"  horiz-adv-x="690" vert-adv-y="1000"  />

      
      <glyph glyph-name="uni6e" unicode="&#x6e;" d="M155 0L65 0L153 500L228 500L227 470L232 470Q255 489 284.50 499.50Q314 510 344 510Q380 510 407.50 503.50Q435 497 452 480Q469 463 475 434Q481 405 473 360L410 0L320 0L383 360Q387 386 383 403.50Q379 421 368.50 431.50Q358 442 341.50 446Q325 450 304 450Q285 450 264 444Q243 438 230 430L155 0Z"  horiz-adv-x="475" vert-adv-y="1000"  />

      
      <glyph glyph-name="uni6f" unicode="&#x6f;" d="M369 250Q379 310 378.50 349.50Q378 389 369 412.50Q360 436 344.50 445.50Q329 455 310 455Q291 455 272 445.50Q253 436 236 412.50Q219 389 204 349.50Q189 310 179 250Q168 190 168.50 150.50Q169 111 178 87.50Q187 64 202.50 54.50Q218 45 237 45Q256 45 275 54.50Q294 64 311 87.50Q328 111 343 150.50Q358 190 369 250M459 250Q446 177 425 127Q404 77 375.50 46.50Q347 16 310 3Q273-10 228-10Q183-10 150.50 3Q118 16 100 46.50Q82 77 79 127Q76 177 89 250Q102 323 122.50 373Q143 423 171.50 453.50Q200 484 237 497Q274 510 319 510Q364 510 396.50 497Q429 484 447 453.50Q465 423 468.50 373Q472 323 459 250Z"  horiz-adv-x="460" vert-adv-y="1000"  />

      
      <glyph glyph-name="uni70" unicode="&#x70;" d="M232 470Q255 489 284.50 499.50Q314 510 344 510Q383 510 412 497.50Q441 485 456.50 455Q472 425 474.50 375Q477 325 464 250Q450 175 430.50 125Q411 75 384.50 45Q358 15 325 2.50Q292-10 253-10Q223-10 200.50-3Q178 4 157 15L119-200L29-200L153 500L228 500L227 470L232 470M167 70Q177 62 195.50 56Q214 50 233 50Q257 50 278 58.50Q299 67 317 89.50Q335 112 349 151Q363 190 374 250Q384 310 384 348.50Q384 387 374 409.50Q364 432 346 441Q328 450 304 450Q285 450 264 444Q243 438 230 430L167 70Z"  horiz-adv-x="465" vert-adv-y="1000"  />

      
      <glyph glyph-name="uni71" unicode="&#x71;" d="M312 15Q288 4 263-3Q238-10 208-10Q169-10 140 2.50Q111 15 95.50 45Q80 75 77.50 125Q75 175 89 250Q102 325 122 375Q142 425 171.50 455Q201 485 239.50 497.50Q278 510 329 510Q374 510 411.50 502.50Q449 495 484 480L364-200L274-200L312 15M389 450L319 450Q295 450 274 441Q253 432 235.50 409.50Q218 387 203.50 348.50Q189 310 179 250Q168 190 168.50 151Q169 112 178.50 89.50Q188 67 206 58.50Q224 50 248 50Q267 50 288 56Q309 62 322 70L389 450Z"  horiz-adv-x="465" vert-adv-y="1000"  />

      
      <glyph glyph-name="uni72" unicode="&#x72;" d="M155 0L65 0L153 500L229 500L227 460L232 460Q252 475 285 487.50Q318 500 363 500L413 500L399 425L299 425Q280 425 261.50 420.50Q243 416 226 405L155 0Z"  horiz-adv-x="335" vert-adv-y="1000"  />

      
      <glyph glyph-name="uni73" unicode="&#x73;" d="M192 380Q187 350 201 332.50Q215 315 238.50 302Q262 289 290.50 277.50Q319 266 342 248Q365 230 377.50 202.50Q390 175 382 130Q375 89 358.50 62Q342 35 315 19Q288 3 249-3.50Q210-10 158-10Q128-10 95.50-4Q63 2 41 10L48 50L148 50Q216 50 250 67.50Q284 85 292 130Q297 160 283 177.50Q269 195 245.50 208Q222 221 193.50 232.50Q165 244 142 262Q119 280 106.50 307.50Q94 335 102 380Q115 455 164.50 482.50Q214 510 304 510Q334 510 367 504Q400 498 421 490L414 450L314 450Q261 450 229.50 434Q198 418 192 380Z"  horiz-adv-x="395" vert-adv-y="1000"  />

      
      <glyph glyph-name="uni74" unicode="&#x74;" d="M244 425L198 160Q192 126 195 104.50Q198 83 206 71Q214 59 225.50 54.50Q237 50 248 50L338 50L331 10Q321 6 306.50 2.50Q292-1 276-4Q260-7 244.50-8.50Q229-10 218-10Q188-10 163.50-3Q139 4 123.50 22.50Q108 41 103.50 74Q99 107 108 160L154 425L94 425L106 490L166 490L187 610L277 610L256 490L396 490L388 445Q364 437 329 431Q294 425 264 425L244 425Z"  horiz-adv-x="345" vert-adv-y="1000"  />

      
      <glyph glyph-name="uni75" unicode="&#x75;" d="M408 500L498 500L410 0L335 0L335 30L330 30Q307 11 277.50 0.50Q248-10 218-10Q182-10 154.50-3.50Q127 3 110 20Q93 37 87 66Q81 95 89 140L153 500L243 500L179 140Q174 114 178.50 96.50Q183 79 193.50 68.50Q204 58 220.50 54Q237 50 258 50Q277 50 298 56Q319 62 332 70L408 500Z"  horiz-adv-x="475" vert-adv-y="1000"  />

      
      <glyph glyph-name="uni76" unicode="&#x76;" d="M150 0L103 500L188 500L227 85L231 85L418 500L503 500L280 0L150 0Z"  horiz-adv-x="430" vert-adv-y="1000"  />

      
      <glyph glyph-name="uni77" unicode="&#x77;" d="M350 270L215 0L105 0L103 500L188 500L190 120L195 120L335 400L415 400L457 120L462 120L598 500L683 500L505 0L395 0L354 270L350 270Z"  horiz-adv-x="610" vert-adv-y="1000"  />

      
      <glyph glyph-name="uni78" unicode="&#x78;" d="M379 500L469 500L304 255L385 0L295 0L234 195L105 0L15 0L184 255L107 500L197 500L255 315L379 500Z"  horiz-adv-x="400" vert-adv-y="1000"  />

      
      <glyph glyph-name="uni79" unicode="&#x79;" d="M218-10Q182-10 154.50-3.50Q127 3 110 20Q93 37 87 66Q81 95 89 140L153 500L243 500L179 140Q174 114 178.50 96.50Q183 79 193.50 68.50Q204 58 220.50 54Q237 50 258 50Q277 50 298 56Q319 62 332 70L408 500L498 500L417 40Q404-31 384-79Q364-127 334.50-156Q305-185 264.50-197.50Q224-210 172-210Q142-210 109.50-204Q77-198 56-190L63-150L163-150Q197-150 223-142Q249-134 268-114.50Q287-95 300.50-63.50Q314-32 322 15Q298 4 273-3Q248-10 218-10Z"  horiz-adv-x="475" vert-adv-y="1000"  />

      
      <glyph glyph-name="uni7a" unicode="&#x7a;" d="M427 440L137 65L356 65L345 0L20 0L30 60L321 435L106 435L118 500L438 500L427 440Z"  horiz-adv-x="370" vert-adv-y="1000"  />

      
      <glyph glyph-name="uni7b" unicode="&#x7b;" d="M271 460Q263 419 253 391Q243 363 229 343.50Q215 324 197.50 310Q180 296 159 282L159 278Q175 264 187.50 249.50Q200 235 206.50 215.50Q213 196 213.50 168.50Q214 141 207 100L188-10Q182-44 185.50-65.50Q189-87 199.50-99Q210-111 227.50-115.50Q245-120 268-120L258-180Q209-180 174.50-173Q140-166 120-147.50Q100-129 94.50-96Q89-63 98-10L121 120Q127 152 125 174Q123 196 115.50 211Q108 226 95 235Q82 244 64 250L74 310Q94 316 110.50 325Q127 334 140 349Q153 364 162 386Q171 408 177 440L200 570Q209 622 226.50 655.50Q244 689 270.50 707.50Q297 726 334 733Q371 740 420 740L409 680Q386 680 367 675.50Q348 671 333 659Q318 647 307 625.50Q296 604 290 570L271 460Z"  horiz-adv-x="290" vert-adv-y="1000"  />

      
      <glyph glyph-name="uni7c" unicode="&#x7c;" d="M283 700L124-200L34-200L193 700L283 700Z"  horiz-adv-x="230" vert-adv-y="1000"  />

      
      <glyph glyph-name="uni7d" unicode="&#x7d;" d="M200 570Q206 604 202.50 625.50Q199 647 188 659Q177 671 159 675.50Q141 680 119 680L130 740Q179 740 213.50 733Q248 726 268 707.50Q288 689 293.50 655.50Q299 622 290 570L267 440Q261 408 263 386Q265 364 272.50 349Q280 334 293 325Q306 316 324 310L314 250Q294 244 277.50 235Q261 226 248 211Q235 196 226 174Q217 152 211 120L188-10Q179-63 161.50-96Q144-129 117.50-147.50Q91-166 54-173Q17-180-31-180L-21-120Q1-120 20-115.50Q39-111 54.50-99Q70-87 81-65.50Q92-44 98-10L117 100Q124 141 134.50 168.50Q145 196 159 215.50Q173 235 190.50 249.50Q208 264 229 278L229 282Q213 296 200.50 310Q188 324 181.50 343.50Q175 363 174 391Q173 419 181 460L200 570Z"  horiz-adv-x="290" vert-adv-y="1000"  />

      
      <glyph glyph-name="uni7e" unicode="&#x7e;" d="M385 200Q391 234 382.50 254.50Q374 275 348 275Q331 275 316 262.50Q301 250 283 235Q265 220 241.50 207.50Q218 195 184 195Q116 195 97.50 238Q79 281 93 360L163 360Q157 326 165.50 305.50Q174 285 200 285Q217 285 232 297.50Q247 310 265 325Q283 340 306.50 352.50Q330 365 364 365Q398 365 419 354Q440 343 450 322Q460 301 461 270Q462 239 455 200L385 200Z"  horiz-adv-x="450" vert-adv-y="1000"  />

      
      <glyph glyph-name="unia1" unicode="&#xa1;" d="M243 515L170 0L60 0L163 515L243 515M172 595L192 705L282 705L262 595L172 595Z"  horiz-adv-x="230" vert-adv-y="1000"  />

      
      <glyph glyph-name="unia2" unicode="&#xa2;" d="M344 450L273 50L368 50L361 10Q342 4 315.50-1.50Q289-7 263-9L254-60L194-60L203-8Q162-4 134.50 11Q107 26 92.50 56.50Q78 87 77.50 134.50Q77 182 89 250Q101 320 119 368Q137 416 162.50 446.50Q188 477 220.50 491.50Q253 506 294 509L305 570L365 570L354 508Q377 505 398.50 500Q420 495 436 490L429 450L344 450M179 250Q171 205 169 172Q167 139 171.50 116Q176 93 187 79Q198 65 215 58L283 443Q246 430 220.50 386.50Q195 343 179 250Z"  horiz-adv-x="375" vert-adv-y="1000"  />

      
      <glyph glyph-name="unia3" unicode="&#xa3;" d="M163 390L183 500Q195 567 213.50 608.50Q232 650 260.50 672.50Q289 695 328 702.50Q367 710 420 710Q443 710 466 704Q489 698 506 690L498 645L408 645Q382 645 360.50 640Q339 635 322.50 619.50Q306 604 293.50 575.50Q281 547 273 500L253 390L403 390L391 320L241 320L226 234Q212 159 192.50 124Q173 89 148 74L147 70L407 70L395 0L45 0L53 50Q79 65 98.50 100Q118 135 132 210L151 320L91 320L103 390L163 390Z"  horiz-adv-x="415" vert-adv-y="1000"  />

      
      <glyph glyph-name="unia4" unicode="&#xa4;" d="M411 350Q422 414 401.50 444.50Q381 475 343 475Q305 475 273.50 444.50Q242 414 231 350Q220 286 240.50 255.50Q261 225 299 225Q337 225 368.50 255.50Q400 286 411 350M506 350Q501 324 490 299Q479 274 464 255L522 185L463 135L405 200Q382 181 350 170.50Q318 160 287 160Q258 160 229 170.50Q200 181 185 200L103 135L62 185L144 255Q136 274 133.50 299Q131 324 136 350Q141 376 152.50 401Q164 426 178 445L120 515L179 565L238 500Q260 519 292.50 529.50Q325 540 354 540Q385 540 413.50 529.50Q442 519 458 500L539 565L580 515L498 445Q515 405 506 350Z"  horiz-adv-x="520" vert-adv-y="1000"  />

      
      <glyph glyph-name="unia5" unicode="&#xa5;" d="M369 335L337 275L438 275L426 205L306 205L270 0L180 0L216 205L96 205L108 275L208 275L198 335L119 335L131 405L185 405L133 700L223 700L285 345L473 700L563 700L406 405L461 405L449 335L369 335Z"  horiz-adv-x="450" vert-adv-y="1000"  />

      
      <glyph glyph-name="unia6" unicode="&#xa6;" d="M188 160L124-200L34-200L98 160L188 160M279 680L216 320L126 320L189 680L279 680Z"  horiz-adv-x="230" vert-adv-y="1000"  />

      
      <glyph glyph-name="unia7" unicode="&#xa7;" d="M174 250Q169 225 175 206.50Q181 188 194 174Q207 160 225 149Q243 138 263 128Q294 144 317 172Q340 200 349 250Q353 275 347 293.50Q341 312 328.50 326Q316 340 297.50 351Q279 362 260 372Q229 357 205.50 329Q182 301 174 250M133-150Q212-150 250-122.50Q288-95 296-50Q302-15 286 7Q270 29 243.50 45.50Q217 62 185.50 77.50Q154 93 128.50 114.50Q103 136 89 168Q75 200 84 250Q89 279 101 302.50Q113 326 130 345Q147 364 167 378Q187 392 208 402Q192 412 178.50 425.50Q165 439 156 457Q147 475 144 497.50Q141 520 146 550Q160 625 214 667.50Q268 710 370 710Q408 710 444 704Q480 698 501 690L494 650L379 650Q315 650 279.50 622.50Q244 595 236 550Q230 515 245 493Q260 471 285.50 454.50Q311 438 341.50 422.50Q372 407 396.50 385.50Q421 364 434.50 332Q448 300 439 250Q428 193 393.50 156.50Q359 120 317 100Q334 89 349 75.50Q364 62 374 44.50Q384 27 387.50 3.50Q391-20 386-50Q379-88 362-117.50Q345-147 315.50-167.50Q286-188 243-199Q200-210 142-210Q104-210 68-204Q32-198 11-190L18-150L133-150Z"  horiz-adv-x="435" vert-adv-y="1000"  />

      
      <glyph glyph-name="unia8" unicode="&#xa8;" d="M231 690L212 580L122 580L141 690L231 690M391 690L372 580L282 580L301 690L391 690Z"  horiz-adv-x="290" vert-adv-y="1000"  />

      
      <glyph glyph-name="unia9" unicode="&#xa9;" d="M306 350Q319 421 337.50 464.50Q356 508 382 531.50Q408 555 441 562.50Q474 570 515 570Q549 570 577 564Q605 558 626 550L619 510L524 510Q498 510 476.50 504.50Q455 499 438 482.50Q421 466 408 434Q395 402 386 350Q377 297 379 265.50Q381 234 392 217.50Q403 201 422.50 195.50Q442 190 468 190L573 190L566 150Q542 142 506.50 136Q471 130 437 130Q396 130 365.50 137.50Q335 145 318 168.50Q301 192 297.50 235.50Q294 279 306 350M521 660Q461 660 407.50 639.50Q354 619 311.50 580Q269 541 239 483Q209 425 196 350Q183 275 192.50 217Q202 159 231 120Q260 81 306 60.50Q352 40 412 40Q472 40 525 60.50Q578 81 620.50 120Q663 159 693 217Q723 275 736 350Q749 425 739.50 483Q730 541 701.50 580Q673 619 627 639.50Q581 660 521 660M531 720Q613 720 675.50 694.50Q738 669 776.50 621Q815 573 828 504.50Q841 436 826 350Q811 264 773.50 195.50Q736 127 681 79Q626 31 554.50 5.50Q483-20 401-20Q318-20 256 5.50Q194 31 156 79Q118 127 104.50 195.50Q91 264 106 350Q121 436 158.50 504.50Q196 573 251.50 621Q307 669 377.50 694.50Q448 720 531 720Z"  horiz-adv-x="810" vert-adv-y="1000"  />

      
      <glyph glyph-name="uniaa" unicode="&#xaa;" d="M284 535L239 535Q216 535 200.50 524Q185 513 181 490Q177 467 188.50 456Q200 445 223 445Q245 445 271 460L284 535M228 585Q237 585 248 584Q259 583 269 582Q280 581 292 580L295 600Q300 630 287 642.50Q274 655 240 655L170 655L177 693Q193 698 216.50 701.50Q240 705 259 705Q287 705 308.50 700.50Q330 696 343.50 684.50Q357 673 361.50 652.50Q366 632 360 600L325 400L265 400L264 420Q247 409 227 402Q207 395 184 395Q169 395 155 400Q141 405 130.50 416Q120 427 115.50 445.50Q111 464 116 490Q125 542 157.50 563.50Q190 585 228 585Z"  horiz-adv-x="285" vert-adv-y="1000"  />

      
      <glyph glyph-name="uniab" unicode="&#xab;" d="M164 252L163 248L254 85L182 45L64 250L255 455L313 415L164 252M329 252L328 248L419 85L347 45L229 250L420 455L478 415L329 252Z"  horiz-adv-x="435" vert-adv-y="1000"  />

      
      <glyph glyph-name="uniac" unicode="&#xac;" d="M432 240L367 240L376 340L89 340L102 410L462 410L432 240Z"  horiz-adv-x="420" vert-adv-y="1000"  />

      
      <glyph glyph-name="uniad" unicode="&#xad;" d="M89 340L389 340L375 260L75 260L89 340Z"  horiz-adv-x="360" vert-adv-y="1000"  />

      
      <glyph glyph-name="uniae" unicode="&#xae;" d="M369 140L289 140L361 550Q389 558 422 564Q455 570 500 570Q537 570 566 563.50Q595 557 612.50 541Q630 525 636 498Q642 471 635 430Q630 400 619.50 379.50Q609 359 596.50 345.50Q584 332 570 324Q556 316 544 310L594 140L509 140L466 290L396 290L369 140M461 350Q476 350 491 354Q506 358 519 367.50Q532 377 541.50 392Q551 407 555 430Q559 452 555 467.50Q551 483 541 492.50Q531 502 517.50 506Q504 510 489 510L434 510L406 350L461 350M521 660Q461 660 407.50 639.50Q354 619 311.50 580Q269 541 239 483Q209 425 196 350Q183 275 192.50 217Q202 159 231 120Q260 81 306 60.50Q352 40 412 40Q472 40 525 60.50Q578 81 620.50 120Q663 159 693 217Q723 275 736 350Q749 425 739.50 483Q730 541 701.50 580Q673 619 627 639.50Q581 660 521 660M531 720Q613 720 675.50 694.50Q738 669 776.50 621Q815 573 828 504.50Q841 436 826 350Q811 264 773.50 195.50Q736 127 681 79Q626 31 554.50 5.50Q483-20 401-20Q318-20 256 5.50Q194 31 156 79Q118 127 104.50 195.50Q91 264 106 350Q121 436 158.50 504.50Q196 573 251.50 621Q307 669 377.50 694.50Q448 720 531 720Z"  horiz-adv-x="810" vert-adv-y="1000"  />

      
      <glyph glyph-name="uniaf" unicode="&#xaf;" d="M143 700L373 700L362 640L132 640L143 700Z"  horiz-adv-x="270" vert-adv-y="1000"  />

      
      <glyph glyph-name="unib0" unicode="&#xb0;" d="M269 450Q299 450 323 473.50Q347 497 356 550Q366 603 350 626.50Q334 650 304 650Q274 650 250 626.50Q226 603 216 550Q207 497 223 473.50Q239 450 269 450M315 710Q349 710 374.50 699Q400 688 416 667.50Q432 647 437.50 617Q443 587 436 550Q423 475 374.50 432.50Q326 390 258 390Q190 390 156.50 432.50Q123 475 136 550Q150 625 198.50 667.50Q247 710 315 710Z"  horiz-adv-x="380" vert-adv-y="1000"  />

      
      <glyph glyph-name="unib1" unicode="&#xb1;" d="M51 120L421 120L408 50L38 50L51 120M348 530L321 375L466 375L453 305L308 305L281 150L201 150L228 305L83 305L96 375L241 375L268 530L348 530Z"  horiz-adv-x="430" vert-adv-y="1000"  />

      
      <glyph glyph-name="unib2" unicode="&#xb2;" d="M244 705Q297 705 318.50 680Q340 655 332 610Q324 568 288 531.50Q252 495 184 450L304 450L295 400L100 400L110 455Q140 476 167 495.50Q194 515 215 534.50Q236 554 250 572.50Q264 591 267 610Q270 629 258 642Q246 655 220 655L155 655L162 694Q178 699 199.50 702Q221 705 244 705Z"  horiz-adv-x="255" vert-adv-y="1000"  />

      
      <glyph glyph-name="unib3" unicode="&#xb3;" d="M234 705Q283 705 307.50 687Q332 669 324 620Q320 597 302.50 580.50Q285 564 272 560Q291 556 303.50 537.50Q316 519 310 485Q301 432 265.50 413.50Q230 395 174 395Q151 395 133 398Q115 401 101 406L108 445L183 445Q209 445 225.50 455.50Q242 466 245 485Q249 508 237.50 519Q226 530 203 530L158 530L167 580L207 580Q233 580 244.50 592.50Q256 605 259 620Q261 635 251 645Q241 655 214 655L145 655L152 694Q167 699 189 702Q211 705 234 705Z"  horiz-adv-x="255" vert-adv-y="1000"  />

      
      <glyph glyph-name="unib4" unicode="&#xb4;" d="M118 560L176 690L271 690L178 560L118 560Z"  horiz-adv-x="170" vert-adv-y="1000"  />

      
      <glyph glyph-name="unib5" unicode="&#xb5;" d="M408 500L498 500L410 0L335 0L335 30L330 30Q307 11 282.50 0.50Q258-10 228-10Q212-10 199.50-5.50Q187-1 178 4Q169 9 164 14Q159 19 158 20L119-200L29-200L153 500L243 500L183 160Q173 107 194.50 78.50Q216 50 258 50Q277 50 298 56Q319 62 332 70L408 500Z"  horiz-adv-x="475" vert-adv-y="1000"  />

      
      <glyph glyph-name="unib6" unicode="&#xb6;" d="M404-200L324-200L471 630L401 630L254-200L174-200L268 330Q185 330 145 379Q105 428 120 515Q126 551 145 584Q164 617 192 643Q220 669 256 684.50Q292 700 333 700L633 700L621 630L551 630L404-200Z"  horiz-adv-x="530" vert-adv-y="1000"  />

      
      <glyph glyph-name="unib7" unicode="&#xb7;" d="M241 405L222 295L132 295L151 405L241 405Z"  horiz-adv-x="250" vert-adv-y="1000"  />

      
      <glyph glyph-name="unib8" unicode="&#xb8;" d="M90-25Q132-25 150-45Q168-65 163-95Q158-125 132.50-145Q107-165 65-165Q48-165 35-163Q22-161 13-158Q2-154-6-150L-1-120L63-120Q93-120 98-95Q101-70 72-70L17-70L32 15L82 15L75-25L90-25Z"  horiz-adv-x="200" vert-adv-y="1000"  />

      
      <glyph glyph-name="unib9" unicode="&#xb9;" d="M278 700L225 400L160 400L204 650L144 650L151 688Q167 693 194.50 696.50Q222 700 248 700L278 700Z"  horiz-adv-x="185" vert-adv-y="1000"  />

      
      <glyph glyph-name="uniba" unicode="&#xba;" d="M301 550Q312 610 300 632.50Q288 655 265 655Q242 655 222 632.50Q202 610 191 550Q186 520 187 500Q188 480 193 467.50Q198 455 207.50 450Q217 445 228 445Q251 445 270.50 467.50Q290 490 301 550M366 550Q352 471 312 433Q272 395 219 395Q193 395 172.50 404.50Q152 414 139.50 433Q127 452 123 481.50Q119 511 126 550Q140 629 180.50 667Q221 705 274 705Q327 705 353.50 667Q380 629 366 550Z"  horiz-adv-x="300" vert-adv-y="1000"  />

      
      <glyph glyph-name="unibb" unicode="&#xbb;" d="M268 415L340 455L459 250L267 45L209 85L358 248L359 252L268 415M103 415L175 455L294 250L102 45L44 85L193 248L194 252L103 415Z"  horiz-adv-x="435" vert-adv-y="1000"  />

      
      <glyph glyph-name="unibc" unicode="&#xbc;" d="M430 115L447 213L355 115L430 115M285 115L457 300L527 300L495 115L525 115L516 65L486 65L475 0L410 0L421 65L276 65L285 115M633 700L120 0L40 0L553 700L633 700M298 700L245 400L175 400L219 650L159 650L166 688Q182 693 209.50 696.50Q237 700 263 700L298 700Z"  horiz-adv-x="560" vert-adv-y="1000"  />

      
      <glyph glyph-name="unibd" unicode="&#xbd;" d="M478 305Q531 305 553 280Q575 255 567 210Q559 168 523 131.50Q487 95 418 50L538 50L530 0L335 0L344 55Q374 76 401 95.50Q428 115 449.50 134.50Q471 154 485 172.50Q499 191 502 210Q505 229 492.50 242Q480 255 454 255L389 255L396 294Q412 299 433.50 302Q455 305 478 305M643 700L130 0L50 0L563 700L643 700M308 700L255 400L185 400L229 650L169 650L176 688Q192 693 219.50 696.50Q247 700 273 700L308 700Z"  horiz-adv-x="590" vert-adv-y="1000"  />

      
      <glyph glyph-name="unibe" unicode="&#xbe;" d="M244 705Q293 705 317.50 687Q342 669 334 620Q330 597 312.50 580.50Q295 564 282 560Q301 556 313.50 537.50Q326 519 320 485Q311 432 275.50 413.50Q240 395 184 395Q161 395 143 398Q125 401 111 406L118 445L193 445Q219 445 235.50 455.50Q252 466 255 485Q259 508 247.50 519Q236 530 213 530L168 530L177 580L217 580Q243 580 254.50 592.50Q266 605 269 620Q271 635 261 645Q251 655 224 655L155 655L162 694Q177 699 199 702Q221 705 244 705M435 115L452 213L360 115L435 115M290 115L462 300L532 300L500 115L530 115L521 65L491 65L480 0L415 0L426 65L281 65L290 115M638 700L125 0L45 0L558 700L638 700Z"  horiz-adv-x="565" vert-adv-y="1000"  />

      
      <glyph glyph-name="unibf" unicode="&#xbf;" d="M355 515Q347 471 330.50 439Q314 407 293.50 381.50Q273 356 250.50 334.50Q228 313 208 290.50Q188 268 172.50 241.50Q157 215 151 180Q140 116 163 85.50Q186 55 239 55L369 55L361 10Q338 2 295.50-4Q253-10 208-10Q117-10 80.50 36Q44 82 61 180Q69 222 86 253.50Q103 285 124.50 310Q146 335 170 356.50Q194 378 215 401.50Q236 425 252.50 452Q269 479 275 515L355 515M284 595L304 705L394 705L374 595L284 595Z"  horiz-adv-x="370" vert-adv-y="1000"  />

      
      <glyph glyph-name="unic0" unicode="&#xc0;" d="M186 180L110 0L20 0L313 700L443 700L490 0L400 0L386 180L186 180M362 600L358 600L214 250L384 250L362 600M362 750L315 880L410 880L422 750L362 750Z"  horiz-adv-x="510" vert-adv-y="1000"  />

      
      <glyph glyph-name="unic1" unicode="&#xc1;" d="M186 180L110 0L20 0L313 700L443 700L490 0L400 0L386 180L186 180M362 600L358 600L214 250L384 250L362 600M352 750L410 880L505 880L412 750L352 750Z"  horiz-adv-x="510" vert-adv-y="1000"  />

      
      <glyph glyph-name="unic2" unicode="&#xc2;" d="M186 180L110 0L20 0L313 700L443 700L490 0L400 0L386 180L186 180M362 600L358 600L214 250L384 250L362 600M265 750L363 880L458 880L510 750L450 750L400 824L325 750L265 750Z"  horiz-adv-x="510" vert-adv-y="1000"  />

      
      <glyph glyph-name="unic3" unicode="&#xc3;" d="M186 180L110 0L20 0L313 700L443 700L490 0L400 0L386 180L186 180M362 600L358 600L214 250L384 250L362 600M454 765Q459 788 453.50 799Q448 810 437 810Q428 810 418 800.50Q408 791 396.50 780Q385 769 370.50 759.50Q356 750 337 750Q299 750 284.50 774Q270 798 280 855L330 855Q322 810 347 810Q356 810 366 819.50Q376 829 388 840Q400 851 414.50 860.50Q429 870 448 870Q486 870 500.50 846Q515 822 504 765L454 765Z"  horiz-adv-x="510" vert-adv-y="1000"  />

      
      <glyph glyph-name="unic4" unicode="&#xc4;" d="M186 180L110 0L20 0L313 700L443 700L490 0L400 0L386 180L186 180M362 600L358 600L214 250L384 250L362 600M373 870L354 760L264 760L283 870L373 870M533 870L514 760L424 760L443 870L533 870Z"  horiz-adv-x="510" vert-adv-y="1000"  />

      
      <glyph glyph-name="unic5" unicode="&#xc5;" d="M186 180L110 0L20 0L313 700L443 700L490 0L400 0L386 180L186 180M362 600L358 600L214 250L384 250L362 600M432 810Q436 829 427 837Q418 845 403 845Q388 845 377 837Q366 829 362 810Q359 791 367.50 783Q376 775 391 775Q406 775 417.50 783Q429 791 432 810M482 810Q476 772 448.50 751Q421 730 383 730Q345 730 325.50 751Q306 772 312 810Q319 848 346 869Q373 890 411 890Q449 890 469 869Q489 848 482 810Z"  horiz-adv-x="510" vert-adv-y="1000"  />

      
      <glyph glyph-name="unic6" unicode="&#xc6;" d="M363 700L814 700L802 630L552 630L511 400L731 400L719 330L499 330L453 70L703 70L691 0L351 0L382 180L183 180L90 0L0 0L363 700M220 250L395 250L462 630L417 630L220 250Z"  horiz-adv-x="731" vert-adv-y="1000"  />

      
      <glyph glyph-name="unic7" unicode="&#xc7;" d="M280-25Q322-25 340-45Q358-65 353-95Q348-125 321-145Q294-165 245-165Q228-165 214.50-163Q201-161 192-158Q181-154 173-150L178-120L243-120Q266-120 276-113Q286-106 288-95Q291-70 262-70L207-70L218-6Q179 1 151 23Q123 45 109 87Q95 129 95 193.50Q95 258 111 350Q130 455 156.50 524.50Q183 594 217.50 635Q252 676 294 693Q336 710 385 710Q430 710 470 704Q510 698 531 690L523 645L393 645Q363 645 335 632Q307 619 282.50 585.50Q258 552 237.50 495Q217 438 201 350Q186 262 186.50 205Q187 148 201 114.50Q215 81 240 68Q265 55 299 55L429 55L421 10Q398 2 355.50-4Q313-10 268-10L265-25L280-25Z"  horiz-adv-x="435" vert-adv-y="1000"  />

      
      <glyph glyph-name="unic8" unicode="&#xc8;" d="M172 70L422 70L410 0L70 0L193 700L533 700L521 630L271 630L230 400L450 400L438 330L218 330L172 70M352 750L305 880L400 880L412 750L352 750Z"  horiz-adv-x="450" vert-adv-y="1000"  />

      
      <glyph glyph-name="unic9" unicode="&#xc9;" d="M172 70L422 70L410 0L70 0L193 700L533 700L521 630L271 630L230 400L450 400L438 330L218 330L172 70M342 750L400 880L495 880L402 750L342 750Z"  horiz-adv-x="450" vert-adv-y="1000"  />

      
      <glyph glyph-name="unica" unicode="&#xca;" d="M172 70L422 70L410 0L70 0L193 700L533 700L521 630L271 630L230 400L450 400L438 330L218 330L172 70M247 750L345 880L440 880L492 750L432 750L382 824L307 750L247 750Z"  horiz-adv-x="450" vert-adv-y="1000"  />

      
      <glyph glyph-name="unicb" unicode="&#xcb;" d="M172 70L422 70L410 0L70 0L193 700L533 700L521 630L271 630L230 400L450 400L438 330L218 330L172 70M355 880L335 770L245 770L265 880L355 880M515 880L495 770L405 770L425 880L515 880Z"  horiz-adv-x="450" vert-adv-y="1000"  />

      
      <glyph glyph-name="unicc" unicode="&#xcc;" d="M278 700L155 0L65 0L188 700L278 700M217 750L170 880L265 880L277 750L217 750Z"  horiz-adv-x="225" vert-adv-y="1000"  />

      
      <glyph glyph-name="unicd" unicode="&#xcd;" d="M283 700L160 0L70 0L193 700L283 700M217 750L275 880L370 880L277 750L217 750Z"  horiz-adv-x="230" vert-adv-y="1000"  />

      
      <glyph glyph-name="unice" unicode="&#xce;" d="M273 700L150 0L60 0L183 700L273 700M117 750L215 880L310 880L362 750L302 750L252 824L177 750L117 750Z"  horiz-adv-x="215" vert-adv-y="1000"  />

      
      <glyph glyph-name="unicf" unicode="&#xcf;" d="M283 700L160 0L70 0L193 700L283 700M235 880L215 770L125 770L145 880L235 880M395 880L375 770L285 770L305 880L395 880Z"  horiz-adv-x="230" vert-adv-y="1000"  />

      
      <glyph glyph-name="unid0" unicode="&#xd0;" d="M158 390L211 690Q251 701 290.50 705.50Q330 710 375 710Q435 710 477 693Q519 676 541.50 635Q564 594 567 524.50Q570 455 551 350Q533 245 505.50 175.50Q478 106 441 65Q404 24 356 7Q308-10 248-10Q203-10 165-5.50Q127-1 91 10L146 320L66 320L78 390L158 390M461 350Q477 438 476 495Q475 552 461.50 585.50Q448 619 422.50 632Q397 645 363 645L293 645L248 390L358 390L346 320L236 320L189 55L259 55Q293 55 323 68Q353 81 378.50 114.50Q404 148 425 205Q446 262 461 350Z"  horiz-adv-x="540" vert-adv-y="1000"  />

      
      <glyph glyph-name="unid1" unicode="&#xd1;" d="M464 765Q469 788 463.50 799Q458 810 447 810Q438 810 428 800.50Q418 791 406.50 780Q395 769 380.50 759.50Q366 750 347 750Q309 750 294.50 774Q280 798 290 855L340 855Q332 810 357 810Q366 810 376 819.50Q386 829 398 840Q410 851 424.50 860.50Q439 870 458 870Q496 870 510.50 846Q525 822 514 765L464 765M160 0L70 0L193 700L293 700L411 205L416 205L503 700L593 700L470 0L370 0L252 495L247 495L160 0Z"  horiz-adv-x="540" vert-adv-y="1000"  />

      
      <glyph glyph-name="unid2" unicode="&#xd2;" d="M390 710Q441 710 478 693Q515 676 535 635Q555 594 557.50 524.50Q560 455 541 350Q523 245 496 175.50Q469 106 434 65Q399 24 356.50 7Q314-10 263-10Q212-10 175 7Q138 24 118 65Q98 106 95.50 175.50Q93 245 111 350Q130 455 157 524.50Q184 594 219 635Q254 676 296.50 693Q339 710 390 710M273 50Q297 50 322 63Q347 76 370.50 110Q394 144 414.50 202Q435 260 451 350Q467 440 467 498Q467 556 455.50 590Q444 624 423.50 637Q403 650 379 650Q355 650 330 637Q305 624 281.50 590Q258 556 237.50 498Q217 440 201 350Q185 260 185.50 202Q186 144 197 110Q208 76 228.50 63Q249 50 273 50M374 760L326 890L421 890L434 760L374 760Z"  horiz-adv-x="530" vert-adv-y="1000"  />

      
      <glyph glyph-name="unid3" unicode="&#xd3;" d="M390 710Q441 710 478 693Q515 676 535 635Q555 594 557.50 524.50Q560 455 541 350Q523 245 496 175.50Q469 106 434 65Q399 24 356.50 7Q314-10 263-10Q212-10 175 7Q138 24 118 65Q98 106 95.50 175.50Q93 245 111 350Q130 455 157 524.50Q184 594 219 635Q254 676 296.50 693Q339 710 390 710M273 50Q297 50 322 63Q347 76 370.50 110Q394 144 414.50 202Q435 260 451 350Q467 440 467 498Q467 556 455.50 590Q444 624 423.50 637Q403 650 379 650Q355 650 330 637Q305 624 281.50 590Q258 556 237.50 498Q217 440 201 350Q185 260 185.50 202Q186 144 197 110Q208 76 228.50 63Q249 50 273 50M364 760L421 890L516 890L424 760L364 760Z"  horiz-adv-x="530" vert-adv-y="1000"  />

      
      <glyph glyph-name="unid4" unicode="&#xd4;" d="M390 710Q441 710 478 693Q515 676 535 635Q555 594 557.50 524.50Q560 455 541 350Q523 245 496 175.50Q469 106 434 65Q399 24 356.50 7Q314-10 263-10Q212-10 175 7Q138 24 118 65Q98 106 95.50 175.50Q93 245 111 350Q130 455 157 524.50Q184 594 219 635Q254 676 296.50 693Q339 710 390 710M273 50Q297 50 322 63Q347 76 370.50 110Q394 144 414.50 202Q435 260 451 350Q467 440 467 498Q467 556 455.50 590Q444 624 423.50 637Q403 650 379 650Q355 650 330 637Q305 624 281.50 590Q258 556 237.50 498Q217 440 201 350Q185 260 185.50 202Q186 144 197 110Q208 76 228.50 63Q249 50 273 50M279 760L376 890L471 890L524 760L464 760L414 834L339 760L279 760Z"  horiz-adv-x="530" vert-adv-y="1000"  />

      
      <glyph glyph-name="unid5" unicode="&#xd5;" d="M390 710Q441 710 478 693Q515 676 535 635Q555 594 557.50 524.50Q560 455 541 350Q523 245 496 175.50Q469 106 434 65Q399 24 356.50 7Q314-10 263-10Q212-10 175 7Q138 24 118 65Q98 106 95.50 175.50Q93 245 111 350Q130 455 157 524.50Q184 594 219 635Q254 676 296.50 693Q339 710 390 710M273 50Q297 50 322 63Q347 76 370.50 110Q394 144 414.50 202Q435 260 451 350Q467 440 467 498Q467 556 455.50 590Q444 624 423.50 637Q403 650 379 650Q355 650 330 637Q305 624 281.50 590Q258 556 237.50 498Q217 440 201 350Q185 260 185.50 202Q186 144 197 110Q208 76 228.50 63Q249 50 273 50M466 775Q473 820 449 820Q440 820 430 810.50Q420 801 408.50 790Q397 779 382.50 769.50Q368 760 349 760Q311 760 296.50 784Q282 808 292 865L342 865Q334 820 359 820Q368 820 378 829.50Q388 839 400 850Q412 861 426.50 870.50Q441 880 460 880Q498 880 512 856Q526 832 516 775L466 775Z"  horiz-adv-x="530" vert-adv-y="1000"  />

      
      <glyph glyph-name="unid6" unicode="&#xd6;" d="M390 710Q441 710 478 693Q515 676 535 635Q555 594 557.50 524.50Q560 455 541 350Q523 245 496 175.50Q469 106 434 65Q399 24 356.50 7Q314-10 263-10Q212-10 175 7Q138 24 118 65Q98 106 95.50 175.50Q93 245 111 350Q130 455 157 524.50Q184 594 219 635Q254 676 296.50 693Q339 710 390 710M273 50Q297 50 322 63Q347 76 370.50 110Q394 144 414.50 202Q435 260 451 350Q467 440 467 498Q467 556 455.50 590Q444 624 423.50 637Q403 650 379 650Q355 650 330 637Q305 624 281.50 590Q258 556 237.50 498Q217 440 201 350Q185 260 185.50 202Q186 144 197 110Q208 76 228.50 63Q249 50 273 50M385 880L365 770L275 770L295 880L385 880M545 880L525 770L435 770L455 880L545 880Z"  horiz-adv-x="530" vert-adv-y="1000"  />

      
      <glyph glyph-name="unid7" unicode="&#xd7;" d="M391 490L436 435L313 330L399 225L334 170L248 275L124 170L79 225L203 330L116 435L181 490L267 385L391 490Z"  horiz-adv-x="400" vert-adv-y="1000"  />

      
      <glyph glyph-name="unid8" unicode="&#xd8;" d="M395 710Q448 710 485.50 691.50Q523 673 543 627L589 680L624 650L558 574Q564 533 561.50 478Q559 423 546 350Q528 245 501 175.50Q474 106 439 65Q404 24 361.50 7Q319-10 268-10Q214-10 176.50 8.50Q139 27 119 73L73 20L38 50L105 126Q98 167 100.50 222Q103 277 116 350Q135 455 162 524.50Q189 594 224 635Q259 676 301.50 693Q344 710 395 710M206 350Q200 313 196 282Q192 251 191 225L469 543Q466 574 458 594.50Q450 615 439 627.50Q428 640 414 645Q400 650 384 650Q360 650 335 637Q310 624 286.50 590Q263 556 242.50 498Q222 440 206 350M278 50Q302 50 327 63Q352 76 375.50 110Q399 144 419.50 202Q440 260 456 350Q463 387 466 418Q469 449 471 475L192 156Q199 95 222.50 72.50Q246 50 278 50Z"  horiz-adv-x="540" vert-adv-y="1000"  />

      
      <glyph glyph-name="unid9" unicode="&#xd9;" d="M268 50Q294 50 316 58.50Q338 67 356 88.50Q374 110 388 147Q402 184 412 240L493 700L583 700L502 240Q489 169 469 121Q449 73 419.50 44Q390 15 350 2.50Q310-10 258-10Q205-10 169.50 2.50Q134 15 114.50 44Q95 73 92 121Q89 169 102 240L183 700L273 700L192 240Q182 184 182.50 147Q183 110 193.50 88.50Q204 67 223 58.50Q242 50 268 50M365 740L318 870L413 870L425 740L365 740Z"  horiz-adv-x="520" vert-adv-y="1000"  />

      
      <glyph glyph-name="unida" unicode="&#xda;" d="M268 50Q294 50 316 58.50Q338 67 356 88.50Q374 110 388 147Q402 184 412 240L493 700L583 700L502 240Q489 169 469 121Q449 73 419.50 44Q390 15 350 2.50Q310-10 258-10Q205-10 169.50 2.50Q134 15 114.50 44Q95 73 92 121Q89 169 102 240L183 700L273 700L192 240Q182 184 182.50 147Q183 110 193.50 88.50Q204 67 223 58.50Q242 50 268 50M355 740L413 870L508 870L415 740L355 740Z"  horiz-adv-x="520" vert-adv-y="1000"  />

      
      <glyph glyph-name="unidb" unicode="&#xdb;" d="M268 50Q294 50 316 58.50Q338 67 356 88.50Q374 110 388 147Q402 184 412 240L493 700L583 700L502 240Q489 169 469 121Q449 73 419.50 44Q390 15 350 2.50Q310-10 258-10Q205-10 169.50 2.50Q134 15 114.50 44Q95 73 92 121Q89 169 102 240L183 700L273 700L192 240Q182 184 182.50 147Q183 110 193.50 88.50Q204 67 223 58.50Q242 50 268 50M268 740L366 870L461 870L513 740L453 740L403 814L328 740L268 740Z"  horiz-adv-x="520" vert-adv-y="1000"  />

      
      <glyph glyph-name="unidc" unicode="&#xdc;" d="M268 50Q294 50 316 58.50Q338 67 356 88.50Q374 110 388 147Q402 184 412 240L493 700L583 700L502 240Q489 169 469 121Q449 73 419.50 44Q390 15 350 2.50Q310-10 258-10Q205-10 169.50 2.50Q134 15 114.50 44Q95 73 92 121Q89 169 102 240L183 700L273 700L192 240Q182 184 182.50 147Q183 110 193.50 88.50Q204 67 223 58.50Q242 50 268 50M376 860L357 750L267 750L286 860L376 860M536 860L517 750L427 750L446 860L536 860Z"  horiz-adv-x="520" vert-adv-y="1000"  />

      
      <glyph glyph-name="unidd" unicode="&#xdd;" d="M320 740L378 870L473 870L380 740L320 740M473 700L563 700L308 220L270 0L180 0L218 220L133 700L223 700L285 345L473 700Z"  horiz-adv-x="450" vert-adv-y="1000"  />

      
      <glyph glyph-name="unide" unicode="&#xde;" d="M271 630Q424 622 484 552Q544 482 521 350Q498 218 413 148Q328 78 172 70L158-10L68-10L195 710L285 710L271 630M183 135Q289 139 351 191.50Q413 244 431 350Q450 456 407 508.50Q364 561 259 565L183 135Z"  horiz-adv-x="500" vert-adv-y="1000"  />

      
      <glyph glyph-name="unidf" unicode="&#xdf;" d="M394 365Q390 345 400 330Q410 315 425.50 301Q441 287 460 272.50Q479 258 494 239Q509 220 516.50 195Q524 170 518 135Q510 92 494.50 64Q479 36 454.50 19.50Q430 3 397-3.50Q364-10 323-10Q300-10 274-4Q248 2 226 10L233 50L313 50Q358 50 389 68Q420 86 428 135Q432 160 423.50 178.50Q415 197 399.50 212.50Q384 228 365 242.50Q346 257 331 274Q316 291 307.50 313Q299 335 304 365Q310 399 330.50 421.50Q351 444 374 463Q397 482 416.50 502Q436 522 441 550Q449 592 427.50 618.50Q406 645 368 645Q323 645 289.50 611Q256 577 242 495L155 0L65 0L152 495Q162 553 180.50 594Q199 635 227 660.50Q255 686 293 698Q331 710 380 710Q471 710 508 667.50Q545 625 531 550Q525 514 504.50 490.50Q484 467 461 448Q438 429 418 410Q398 391 394 365Z"  horiz-adv-x="530" vert-adv-y="1000"  />

      
      <glyph glyph-name="unie0" unicode="&#xe0;" d="M327 560L280 690L375 690L387 560L327 560M400 0L325 0L325 30L320 30Q297 11 267.50 0.50Q238-10 208-10Q169-10 140 2.50Q111 15 95.50 45Q80 75 77.50 125Q75 175 89 250Q102 325 122 375Q142 425 171.50 455Q201 485 239.50 497.50Q278 510 329 510Q374 510 411.50 502.50Q449 495 484 480L400 0M319 450Q295 450 274 441Q253 432 235.50 409.50Q218 387 203.50 348.50Q189 310 179 250Q168 190 168.50 151Q169 112 178.50 89.50Q188 67 206 58.50Q224 50 248 50Q267 50 288 56Q309 62 322 70L389 450L319 450Z"  horiz-adv-x="464" vert-adv-y="1000"  />

      
      <glyph glyph-name="unie1" unicode="&#xe1;" d="M308 560L366 690L461 690L368 560L308 560M400 0L325 0L325 30L320 30Q297 11 267.50 0.50Q238-10 208-10Q169-10 140 2.50Q111 15 95.50 45Q80 75 77.50 125Q75 175 89 250Q102 325 122 375Q142 425 171.50 455Q201 485 239.50 497.50Q278 510 329 510Q374 510 411.50 502.50Q449 495 484 480L400 0M319 450Q295 450 274 441Q253 432 235.50 409.50Q218 387 203.50 348.50Q189 310 179 250Q168 190 168.50 151Q169 112 178.50 89.50Q188 67 206 58.50Q224 50 248 50Q267 50 288 56Q309 62 322 70L389 450L319 450Z"  horiz-adv-x="465" vert-adv-y="1000"  />

      
      <glyph glyph-name="unie2" unicode="&#xe2;" d="M220 550L318 680L413 680L465 550L405 550L356 624L280 550L220 550M399 0L324 0L324 30L319 30Q296 11 266.50 0.50Q237-10 207-10Q168-10 139 2.50Q110 15 94.50 45Q79 75 76.50 125Q74 175 88 250Q101 325 121 375Q141 425 170.50 455Q200 485 238.50 497.50Q277 510 328 510Q373 510 410.50 502.50Q448 495 483 480L399 0M318 450Q294 450 273 441Q252 432 234.50 409.50Q217 387 202.50 348.50Q188 310 178 250Q167 190 167.50 151Q168 112 177.50 89.50Q187 67 205 58.50Q223 50 247 50Q266 50 287 56Q308 62 321 70L388 450L318 450Z"  horiz-adv-x="464" vert-adv-y="1000"  />

      
      <glyph glyph-name="unie3" unicode="&#xe3;" d="M416 580Q423 625 399 625Q390 625 380 615.50Q370 606 358 595Q346 584 331.50 574.50Q317 565 298 565Q260 565 245.50 589Q231 613 242 670L292 670Q287 647 292.50 636Q298 625 309 625Q318 625 328 634.50Q338 644 349.50 655Q361 666 375.50 675.50Q390 685 409 685Q447 685 461.50 661Q476 637 466 580L416 580M399 0L324 0L324 30L319 30Q296 11 266.50 0.50Q237-10 207-10Q168-10 139 2.50Q110 15 94.50 45Q79 75 76.50 125Q74 175 88 250Q101 325 121 375Q141 425 170.50 455Q200 485 238.50 497.50Q277 510 328 510Q373 510 410.50 502.50Q448 495 483 480L399 0M318 450Q294 450 273 441Q252 432 234.50 409.50Q217 387 202.50 348.50Q188 310 178 250Q167 190 167.50 151Q168 112 177.50 89.50Q187 67 205 58.50Q223 50 247 50Q266 50 287 56Q308 62 321 70L388 450L318 450Z"  horiz-adv-x="464" vert-adv-y="1000"  />

      
      <glyph glyph-name="unie4" unicode="&#xe4;" d="M328 680L309 570L219 570L238 680L328 680M488 680L469 570L379 570L398 680L488 680M399 0L324 0L324 30L319 30Q296 11 266.50 0.50Q237-10 207-10Q168-10 139 2.50Q110 15 94.50 45Q79 75 76.50 125Q74 175 88 250Q101 325 121 375Q141 425 170.50 455Q200 485 238.50 497.50Q277 510 328 510Q373 510 410.50 502.50Q448 495 483 480L399 0M318 450Q294 450 273 441Q252 432 234.50 409.50Q217 387 202.50 348.50Q188 310 178 250Q167 190 167.50 151Q168 112 177.50 89.50Q187 67 205 58.50Q223 50 247 50Q266 50 287 56Q308 62 321 70L388 450L318 450Z"  horiz-adv-x="464" vert-adv-y="1000"  />

      
      <glyph glyph-name="unie5" unicode="&#xe5;" d="M389 620Q392 639 383.50 647Q375 655 360 655Q345 655 333.50 647Q322 639 319 620Q315 601 324 593Q333 585 348 585Q363 585 374 593Q385 601 389 620M439 620Q432 582 405 561Q378 540 340 540Q302 540 282 561Q262 582 269 620Q276 658 303 679Q330 700 368 700Q406 700 426 679Q446 658 439 620M400 0L325 0L325 30L320 30Q297 11 267.50 0.50Q238-10 208-10Q169-10 140 2.50Q111 15 95.50 45Q80 75 77.50 125Q75 175 89 250Q102 325 122 375Q142 425 171.50 455Q201 485 239.50 497.50Q278 510 329 510Q374 510 411.50 502.50Q449 495 484 480L400 0M319 450Q295 450 274 441Q253 432 235.50 409.50Q218 387 203.50 348.50Q189 310 179 250Q168 190 168.50 151Q169 112 178.50 89.50Q188 67 206 58.50Q224 50 248 50Q267 50 288 56Q309 62 322 70L389 450L319 450Z"  horiz-adv-x="465" vert-adv-y="1000"  />

      
      <glyph glyph-name="unie6" unicode="&#xe6;" d="M334 225L264 225Q226 225 197 207Q168 189 159 140Q154 114 158 96.50Q162 79 171.50 68.50Q181 58 194.50 54Q208 50 223 50Q242 50 258 54.50Q274 59 285 65Q298 71 309 80L334 225M529 280Q571 280 596 301Q621 322 628 360Q636 405 617 430Q598 455 560 455Q539 455 520.50 446.50Q502 438 485.50 418Q469 398 456 364.50Q443 331 434 280L529 280M569 510Q660 510 695.50 471Q731 432 718 360Q706 292 659 256Q612 220 518 220L423 220Q414 171 416 138.50Q418 106 431.50 86.50Q445 67 470 58.50Q495 50 533 50L633 50L626 10Q603 2 568-4Q533-10 503-10Q443-10 409 6Q375 22 355 60Q326 26 286 8Q246-10 193-10Q159-10 132.50-3.50Q106 3 89.50 20Q73 37 67 66Q61 95 69 140Q76 183 92 211Q108 239 130.50 255.50Q153 272 182 278.50Q211 285 245 285Q268 285 294.50 282Q321 279 343 275L354 340Q360 374 356.50 395.50Q353 417 341 429Q329 441 309.50 445.50Q290 450 264 450L164 450L171 490Q195 498 229.50 504Q264 510 294 510Q339 510 374 492Q409 474 422 440Q447 474 483.50 492Q520 510 569 510Z"  horiz-adv-x="685" vert-adv-y="1000"  />

      
      <glyph glyph-name="unie7" unicode="&#xe7;" d="M240-25Q282-25 300-45Q318-65 313-95Q308-125 281-145Q254-165 205-165Q188-165 174.50-163Q161-161 152-158Q141-154 133-150L138-120L203-120Q226-120 236-113Q246-106 248-95Q251-70 222-70L167-70L179-4Q145 2 122.50 19Q100 36 89 66.50Q78 97 78 142Q78 187 89 250Q102 325 122 375Q142 425 170 455Q198 485 235 497.50Q272 510 319 510Q349 510 382 504Q415 498 436 490L429 450L329 450Q301 450 278 441Q255 432 236.50 409.50Q218 387 203.50 348.50Q189 310 179 250Q168 190 168.50 151Q169 112 180.50 89.50Q192 67 214 58.50Q236 50 268 50L368 50L361 10Q338 2 303-4Q268-10 238-10L228-10L225-25L240-25Z"  horiz-adv-x="375" vert-adv-y="1000"  />

      
      <glyph glyph-name="unie8" unicode="&#xe8;" d="M293 560L246 690L341 690L353 560L293 560M277 270Q319 270 344 291Q369 312 376 350Q385 399 364.50 427Q344 455 310 455Q289 455 270.50 446.50Q252 438 235.50 417Q219 396 205.50 360Q192 324 182 270L277 270M172 210Q155 120 181.50 85Q208 50 283 50L383 50L376 10Q353 2 318-4Q283-10 253-10Q197-10 159 2.50Q121 15 101 45Q81 75 78 125Q75 175 89 250Q102 325 122 375Q142 425 170 455Q198 485 235 497.50Q272 510 319 510Q406 510 443 467.50Q480 425 466 350Q454 282 407.50 246Q361 210 267 210L172 210Z"  horiz-adv-x="435" vert-adv-y="1000"  />

      
      <glyph glyph-name="unie9" unicode="&#xe9;" d="M283 560L341 690L436 690L343 560L283 560M277 270Q319 270 344 291Q369 312 376 350Q385 399 364.50 427Q344 455 310 455Q289 455 270.50 446.50Q252 438 235.50 417Q219 396 205.50 360Q192 324 182 270L277 270M172 210Q155 120 181.50 85Q208 50 283 50L383 50L376 10Q353 2 318-4Q283-10 253-10Q197-10 159 2.50Q121 15 101 45Q81 75 78 125Q75 175 89 250Q102 325 122 375Q142 425 170 455Q198 485 235 497.50Q272 510 319 510Q406 510 443 467.50Q480 425 466 350Q454 282 407.50 246Q361 210 267 210L172 210Z"  horiz-adv-x="435" vert-adv-y="1000"  />

      
      <glyph glyph-name="uniea" unicode="&#xea;" d="M196 550L294 680L389 680L441 550L381 550L332 624L256 550L196 550M277 270Q319 270 344 291Q369 312 376 350Q385 399 364.50 427Q344 455 310 455Q289 455 270.50 446.50Q252 438 235.50 417Q219 396 205.50 360Q192 324 182 270L277 270M172 210Q155 120 181.50 85Q208 50 283 50L383 50L376 10Q353 2 318-4Q283-10 253-10Q197-10 159 2.50Q121 15 101 45Q81 75 78 125Q75 175 89 250Q102 325 122 375Q142 425 170 455Q198 485 235 497.50Q272 510 319 510Q406 510 443 467.50Q480 425 466 350Q454 282 407.50 246Q361 210 267 210L172 210Z"  horiz-adv-x="435" vert-adv-y="1000"  />

      
      <glyph glyph-name="unieb" unicode="&#xeb;" d="M304 680L285 570L195 570L214 680L304 680M464 680L445 570L355 570L374 680L464 680M277 270Q319 270 344 291Q369 312 376 350Q385 399 364.50 427Q344 455 310 455Q289 455 270.50 446.50Q252 438 235.50 417Q219 396 205.50 360Q192 324 182 270L277 270M172 210Q155 120 181.50 85Q208 50 283 50L383 50L376 10Q353 2 318-4Q283-10 253-10Q197-10 159 2.50Q121 15 101 45Q81 75 78 125Q75 175 89 250Q102 325 122 375Q142 425 170 455Q198 485 235 497.50Q272 510 319 510Q406 510 443 467.50Q480 425 466 350Q454 282 407.50 246Q361 210 267 210L172 210Z"  horiz-adv-x="435" vert-adv-y="1000"  />

      
      <glyph glyph-name="uniec" unicode="&#xec;" d="M160 0L70 0L158 500L248 500L160 0M183 560L136 690L231 690L243 560L183 560Z"  horiz-adv-x="230" vert-adv-y="1000"  />

      
      <glyph glyph-name="unied" unicode="&#xed;" d="M158 500L248 500L160 0L70 0L158 500M183 560L241 690L336 690L243 560L183 560Z"  horiz-adv-x="230" vert-adv-y="1000"  />

      
      <glyph glyph-name="uniee" unicode="&#xee;" d="M151 500L241 500L153 0L63 0L151 500M81 550L179 680L274 680L326 550L266 550L217 624L141 550L81 550Z"  horiz-adv-x="215" vert-adv-y="1000"  />

      
      <glyph glyph-name="unief" unicode="&#xef;" d="M160 0L70 0L158 500L248 500L160 0M199 680L180 570L90 570L109 680L199 680M359 680L340 570L250 570L269 680L359 680Z"  horiz-adv-x="230" vert-adv-y="1000"  />

      
      <glyph glyph-name="unif0" unicode="&#xf0;" d="M439 603Q501 517 473 360L447 215Q436 153 417.50 110Q399 67 371 40.50Q343 14 306.50 2Q270-10 223-10Q176-10 143.50 2Q111 14 92.50 40.50Q74 67 70 110Q66 153 77 215Q88 277 107 320Q126 363 152.50 389.50Q179 416 214 428Q249 440 292 440Q326 440 349 433Q372 426 393 415Q406 489 381 545L320 485L281 520L351 589Q300 643 193 670L205 710Q333 698 404 641L469 705L508 670L439 603M383 360Q373 368 354 374Q335 380 312 380Q284 380 261 372Q238 364 220 344.50Q202 325 188.50 293.50Q175 262 167 215Q158 166 159.50 133.50Q161 101 170 81.50Q179 62 195 53.50Q211 45 232 45Q253 45 271.50 53.50Q290 62 306.50 81.50Q323 101 335.50 133.50Q348 166 357 215L383 360Z"  horiz-adv-x="455" vert-adv-y="1000"  />

      
      <glyph glyph-name="unif1" unicode="&#xf1;" d="M155 0L65 0L153 500L228 500L227 470L232 470Q255 489 284.50 499.50Q314 510 344 510Q380 510 407.50 503.50Q435 497 452 480Q469 463 475 434Q481 405 473 360L410 0L320 0L383 360Q387 386 383 403.50Q379 421 368.50 431.50Q358 442 341.50 446Q325 450 304 450Q285 450 264 444Q243 438 230 430L155 0M412 580Q419 625 395 625Q386 625 376 615.50Q366 606 354 595Q342 584 327.50 574.50Q313 565 294 565Q256 565 241.50 589Q227 613 238 670L288 670Q283 647 288.50 636Q294 625 305 625Q314 625 324 634.50Q334 644 345.50 655Q357 666 371.50 675.50Q386 685 405 685Q443 685 457.50 661Q472 637 462 580L412 580Z"  horiz-adv-x="475" vert-adv-y="1000"  />

      
      <glyph glyph-name="unif2" unicode="&#xf2;" d="M374 250Q384 310 383.50 349.50Q383 389 374 412.50Q365 436 349.50 445.50Q334 455 315 455Q296 455 277 445.50Q258 436 241 412.50Q224 389 209 349.50Q194 310 184 250Q173 190 173.50 150.50Q174 111 183 87.50Q192 64 207.50 54.50Q223 45 242 45Q261 45 280 54.50Q299 64 316 87.50Q333 111 348 150.50Q363 190 374 250M464 250Q451 177 430 127Q409 77 380.50 46.50Q352 16 315 3Q278-10 233-10Q188-10 155.50 3Q123 16 105 46.50Q87 77 84 127Q81 177 94 250Q107 323 127.50 373Q148 423 176.50 453.50Q205 484 242 497Q279 510 324 510Q369 510 401.50 497Q434 484 452 453.50Q470 423 473.50 373Q477 323 464 250M308 560L261 690L356 690L368 560L308 560Z"  horiz-adv-x="470" vert-adv-y="1000"  />

      
      <glyph glyph-name="unif3" unicode="&#xf3;" d="M184 250Q173 190 173.50 150.50Q174 111 183 87.50Q192 64 207.50 54.50Q223 45 242 45Q261 45 280 54.50Q299 64 316 87.50Q333 111 348 150.50Q363 190 374 250Q384 310 383.50 349.50Q383 389 374 412.50Q365 436 349.50 445.50Q334 455 315 455Q296 455 277 445.50Q258 436 241 412.50Q224 389 209 349.50Q194 310 184 250M94 250Q107 323 127.50 373Q148 423 176.50 453.50Q205 484 242 497Q279 510 324 510Q369 510 401.50 497Q434 484 452 453.50Q470 423 473.50 373Q477 323 464 250Q451 177 430 127Q409 77 380.50 46.50Q352 16 315 3Q278-10 233-10Q188-10 155.50 3Q123 16 105 46.50Q87 77 84 127Q81 177 94 250M298 560L356 690L451 690L358 560L298 560Z"  horiz-adv-x="470" vert-adv-y="1000"  />

      
      <glyph glyph-name="unif4" unicode="&#xf4;" d="M179 250Q168 190 168.50 150.50Q169 111 178 87.50Q187 64 202.50 54.50Q218 45 237 45Q256 45 275 54.50Q294 64 311 87.50Q328 111 343 150.50Q358 190 369 250Q379 310 378.50 349.50Q378 389 369 412.50Q360 436 344.50 445.50Q329 455 310 455Q291 455 272 445.50Q253 436 236 412.50Q219 389 204 349.50Q189 310 179 250M89 250Q102 323 122.50 373Q143 423 171.50 453.50Q200 484 237 497Q274 510 319 510Q364 510 396.50 497Q429 484 447 453.50Q465 423 468.50 373Q472 323 459 250Q446 177 425 127Q404 77 375.50 46.50Q347 16 310 3Q273-10 228-10Q183-10 150.50 3Q118 16 100 46.50Q82 77 79 127Q76 177 89 250M204 550L302 680L397 680L449 550L389 550L340 624L264 550L204 550Z"  horiz-adv-x="460" vert-adv-y="1000"  />

      
      <glyph glyph-name="unif5" unicode="&#xf5;" d="M374 250Q384 310 383.50 349.50Q383 389 374 412.50Q365 436 349.50 445.50Q334 455 315 455Q296 455 277 445.50Q258 436 241 412.50Q224 389 209 349.50Q194 310 184 250Q173 190 173.50 150.50Q174 111 183 87.50Q192 64 207.50 54.50Q223 45 242 45Q261 45 280 54.50Q299 64 316 87.50Q333 111 348 150.50Q363 190 374 250M464 250Q451 177 430 127Q409 77 380.50 46.50Q352 16 315 3Q278-10 233-10Q188-10 155.50 3Q123 16 105 46.50Q87 77 84 127Q81 177 94 250Q107 323 127.50 373Q148 423 176.50 453.50Q205 484 242 497Q279 510 324 510Q369 510 401.50 497Q434 484 452 453.50Q470 423 473.50 373Q477 323 464 250M407 580Q414 625 390 625Q381 625 371 615.50Q361 606 349 595Q337 584 322.50 574.50Q308 565 289 565Q251 565 236.50 589Q222 613 233 670L283 670Q278 647 283.50 636Q289 625 300 625Q309 625 319 634.50Q329 644 340.50 655Q352 666 366.50 675.50Q381 685 400 685Q438 685 452.50 661Q467 637 457 580L407 580Z"  horiz-adv-x="470" vert-adv-y="1000"  />

      
      <glyph glyph-name="unif6" unicode="&#xf6;" d="M374 250Q384 310 383.50 349.50Q383 389 374 412.50Q365 436 349.50 445.50Q334 455 315 455Q296 455 277 445.50Q258 436 241 412.50Q224 389 209 349.50Q194 310 184 250Q173 190 173.50 150.50Q174 111 183 87.50Q192 64 207.50 54.50Q223 45 242 45Q261 45 280 54.50Q299 64 316 87.50Q333 111 348 150.50Q363 190 374 250M464 250Q451 177 430 127Q409 77 380.50 46.50Q352 16 315 3Q278-10 233-10Q188-10 155.50 3Q123 16 105 46.50Q87 77 84 127Q81 177 94 250Q107 323 127.50 373Q148 423 176.50 453.50Q205 484 242 497Q279 510 324 510Q369 510 401.50 497Q434 484 452 453.50Q470 423 473.50 373Q477 323 464 250M319 680L300 570L210 570L229 680L319 680M479 680L460 570L370 570L389 680L479 680Z"  horiz-adv-x="470" vert-adv-y="1000"  />

      
      <glyph glyph-name="unif7" unicode="&#xf7;" d="M89 340L459 340L445 260L75 260L89 340M287 185L271 95L191 95L207 185L287 185M344 505L328 415L248 415L264 505L344 505Z"  horiz-adv-x="430" vert-adv-y="1000"  />

      
      <glyph glyph-name="unif8" unicode="&#xf8;" d="M469 250Q456 177 435 127Q414 77 385.50 46.50Q357 16 320 3Q283-10 238-10Q190-10 156.50 5Q123 20 106 55L68 20L40 60L91 107Q87 135 89 170Q91 205 99 250Q112 323 132.50 373Q153 423 181.50 453.50Q210 484 247 497Q284 510 329 510Q377 510 410.50 495Q444 480 461 445L499 480L527 440L476 393Q479 365 478 330Q477 295 469 250M379 250Q382 267 383.50 282Q385 297 386 311L180 123Q185 78 203.50 61.50Q222 45 247 45Q266 45 285 54.50Q304 64 321 87.50Q338 111 353 150.50Q368 190 379 250M189 250Q183 214 180 188L386 377Q381 421 363 438Q345 455 320 455Q301 455 282 445.50Q263 436 246 412.50Q229 389 214 349.50Q199 310 189 250Z"  horiz-adv-x="480" vert-adv-y="1000"  />

      
      <glyph glyph-name="unif9" unicode="&#xf9;" d="M408 500L498 500L410 0L335 0L335 30L330 30Q307 11 277.50 0.50Q248-10 218-10Q182-10 154.50-3.50Q127 3 110 20Q93 37 87 66Q81 95 89 140L153 500L243 500L179 140Q174 114 178.50 96.50Q183 79 193.50 68.50Q204 58 220.50 54Q237 50 258 50Q277 50 298 56Q319 62 332 70L408 500M313 560L266 690L361 690L373 560L313 560Z"  horiz-adv-x="475" vert-adv-y="1000"  />

      
      <glyph glyph-name="unifa" unicode="&#xfa;" d="M408 500L498 500L410 0L335 0L335 30L330 30Q307 11 277.50 0.50Q248-10 218-10Q182-10 154.50-3.50Q127 3 110 20Q93 37 87 66Q81 95 89 140L153 500L243 500L179 140Q174 114 178.50 96.50Q183 79 193.50 68.50Q204 58 220.50 54Q237 50 258 50Q277 50 298 56Q319 62 332 70L408 500M303 560L361 690L456 690L363 560L303 560Z"  horiz-adv-x="475" vert-adv-y="1000"  />

      
      <glyph glyph-name="unifb" unicode="&#xfb;" d="M408 500L498 500L410 0L335 0L335 30L330 30Q307 11 277.50 0.50Q248-10 218-10Q182-10 154.50-3.50Q127 3 110 20Q93 37 87 66Q81 95 89 140L153 500L243 500L179 140Q174 114 178.50 96.50Q183 79 193.50 68.50Q204 58 220.50 54Q237 50 258 50Q277 50 298 56Q319 62 332 70L408 500M213 550L311 680L406 680L458 550L398 550L349 624L273 550L213 550Z"  horiz-adv-x="475" vert-adv-y="1000"  />

      
      <glyph glyph-name="unifc" unicode="&#xfc;" d="M408 500L498 500L410 0L335 0L335 30L330 30Q307 11 277.50 0.50Q248-10 218-10Q182-10 154.50-3.50Q127 3 110 20Q93 37 87 66Q81 95 89 140L153 500L243 500L179 140Q174 114 178.50 96.50Q183 79 193.50 68.50Q204 58 220.50 54Q237 50 258 50Q277 50 298 56Q319 62 332 70L408 500M324 680L305 570L215 570L234 680L324 680M484 680L465 570L375 570L394 680L484 680Z"  horiz-adv-x="475" vert-adv-y="1000"  />

      
      <glyph glyph-name="unifd" unicode="&#xfd;" d="M218-10Q182-10 154.50-3.50Q127 3 110 20Q93 37 87 66Q81 95 89 140L153 500L243 500L179 140Q174 114 178.50 96.50Q183 79 193.50 68.50Q204 58 220.50 54Q237 50 258 50Q277 50 298 56Q319 62 332 70L408 500L498 500L417 40Q404-31 384-79Q364-127 334.50-156Q305-185 264.50-197.50Q224-210 172-210Q142-210 109.50-204Q77-198 56-190L63-150L163-150Q197-150 223-142Q249-134 268-114.50Q287-95 300.50-63.50Q314-32 322 15Q298 4 273-3Q248-10 218-10M303 560L361 690L456 690L363 560L303 560Z"  horiz-adv-x="475" vert-adv-y="1000"  />

      
      <glyph glyph-name="unife" unicode="&#xfe;" d="M283 700L245 485Q270 496 294.50 503Q319 510 349 510Q388 510 417 497.50Q446 485 461.50 455Q477 425 479.50 375Q482 325 469 250Q455 175 435.50 125Q416 75 389.50 45Q363 15 330 2.50Q297-10 258-10Q228-10 205.50-3Q183 4 162 15L124-200L34-200L193 700L283 700M379 250Q389 310 389 348.50Q389 387 379 409.50Q369 432 351 441Q333 450 309 450Q290 450 269 444Q248 438 235 430L172 70Q182 62 200.50 56Q219 50 238 50Q262 50 283 58.50Q304 67 322 89.50Q340 112 354 151Q368 190 379 250Z"  horiz-adv-x="470" vert-adv-y="1000"  />

      
      <glyph glyph-name="uniff" unicode="&#xff;" d="M218-10Q182-10 154.50-3.50Q127 3 110 20Q93 37 87 66Q81 95 89 140L153 500L243 500L179 140Q174 114 178.50 96.50Q183 79 193.50 68.50Q204 58 220.50 54Q237 50 258 50Q277 50 298 56Q319 62 332 70L408 500L498 500L417 40Q404-31 384-79Q364-127 334.50-156Q305-185 264.50-197.50Q224-210 172-210Q142-210 109.50-204Q77-198 56-190L63-150L163-150Q197-150 223-142Q249-134 268-114.50Q287-95 300.50-63.50Q314-32 322 15Q298 4 273-3Q248-10 218-10M324 680L305 570L215 570L234 680L324 680M484 680L465 570L375 570L394 680L484 680Z"  horiz-adv-x="475" vert-adv-y="1000"  />

      
      <glyph glyph-name="uni0100" unicode="&#x0100;" d="M186 180L110 0L20 0L313 700L443 700L490 0L400 0L386 180L186 180M362 600L358 600L214 250L384 250L362 600M286 830L516 830L505 770L275 770L286 830Z"  horiz-adv-x="510" vert-adv-y="1000"  />

      
      <glyph glyph-name="uni0101" unicode="&#x0101;" d="M247 640L477 640L467 580L237 580L247 640M400 0L325 0L325 30L320 30Q297 11 267.50 0.50Q238-10 208-10Q169-10 140 2.50Q111 15 95.50 45Q80 75 77.50 125Q75 175 89 250Q102 325 122 375Q142 425 171.50 455Q201 485 239.50 497.50Q278 510 329 510Q374 510 411.50 502.50Q449 495 484 480L400 0M319 450Q295 450 274 441Q253 432 235.50 409.50Q218 387 203.50 348.50Q189 310 179 250Q168 190 168.50 151Q169 112 178.50 89.50Q188 67 206 58.50Q224 50 248 50Q267 50 288 56Q309 62 322 70L389 450L319 450Z"  horiz-adv-x="465" vert-adv-y="1000"  />

      
      <glyph glyph-name="uni0104" unicode="&#x0104;" d="M386 180L186 180L110 0L20 0L313 700L443 700L490 0L450 0L442-45Q436-79 446.50-91.50Q457-104 491-104L526-104L519-145Q509-149 497-153Q486-156 472-158Q458-160 441-160Q399-160 381.50-139Q364-118 370-80Q373-63 379.50-48.50Q386-34 393-23Q401-11 410 0L400 0L386 180M362 600L358 600L214 250L384 250L362 600Z"  horiz-adv-x="510" vert-adv-y="1000"  />

      
      <glyph glyph-name="uni0105" unicode="&#x0105;" d="M400 0L375 0L367-45Q361-79 371.50-91.50Q382-104 416-104L451-104L444-145Q434-149 422-153Q411-156 397-158Q383-160 366-160Q324-160 306.50-139Q289-118 295-80Q298-63 304.50-48.50Q311-34 318-23Q326-11 335 0L325 0L325 30L320 30Q297 11 267.50 0.50Q238-10 208-10Q169-10 140 2.50Q111 15 95.50 45Q80 75 77.50 125Q75 175 89 250Q102 325 122 375Q142 425 171.50 455Q201 485 239.50 497.50Q278 510 329 510Q374 510 411.50 502.50Q449 495 484 480L400 0M319 450Q295 450 274 441Q253 432 235.50 409.50Q218 387 203.50 348.50Q189 310 179 250Q168 190 168.50 151Q169 112 178.50 89.50Q188 67 206 58.50Q224 50 248 50Q267 50 288 56Q309 62 322 70L389 450L319 450Z"  horiz-adv-x="465" vert-adv-y="1000"  />

      
      <glyph glyph-name="uni0106" unicode="&#x0106;" d="M268-10Q215-10 177.50 7Q140 24 119 65Q98 106 95.50 175.50Q93 245 111 350Q130 455 156.50 524.50Q183 594 217.50 635Q252 676 294 693Q336 710 385 710Q430 710 470 704Q510 698 531 690L523 645L393 645Q363 645 335 632Q307 619 282.50 585.50Q258 552 237.50 495Q217 438 201 350Q186 262 186.50 205Q187 148 201 114.50Q215 81 240 68Q265 55 299 55L429 55L421 10Q398 2 355.50-4Q313-10 268-10M362 750L420 880L515 880L422 750L362 750Z"  horiz-adv-x="435" vert-adv-y="1000"  />

      
      <glyph glyph-name="uni0107" unicode="&#x0107;" d="M329 450Q301 450 278 441Q255 432 236.50 409.50Q218 387 203.50 348.50Q189 310 179 250Q168 190 168.50 151Q169 112 180.50 89.50Q192 67 214 58.50Q236 50 268 50L368 50L361 10Q338 2 303-4Q268-10 238-10Q187-10 152.50 2.50Q118 15 99.50 45Q81 75 78 125Q75 175 89 250Q102 325 122 375Q142 425 170 455Q198 485 235 497.50Q272 510 319 510Q349 510 382 504Q415 498 436 490L429 450L329 450M288 560L346 690L441 690L348 560L288 560Z"  horiz-adv-x="375" vert-adv-y="1000"  />

      
      <glyph glyph-name="uni010C" unicode="&#x010C;" d="M268-10Q215-10 177.50 7Q140 24 119 65Q98 106 95.50 175.50Q93 245 111 350Q130 455 156.50 524.50Q183 594 217.50 635Q252 676 294 693Q336 710 385 710Q430 710 470 704Q510 698 531 690L523 645L393 645Q363 645 335 632Q307 619 282.50 585.50Q258 552 237.50 495Q217 438 201 350Q186 262 186.50 205Q187 148 201 114.50Q215 81 240 68Q265 55 299 55L429 55L421 10Q398 2 355.50-4Q313-10 268-10M349 890L398 816L474 890L534 890L437 760L342 760L289 890L349 890Z"  horiz-adv-x="435" vert-adv-y="1000"  />

      
      <glyph glyph-name="uni010D" unicode="&#x010D;" d="M329 450Q301 450 278 441Q255 432 236.50 409.50Q218 387 203.50 348.50Q189 310 179 250Q168 190 168.50 151Q169 112 180.50 89.50Q192 67 214 58.50Q236 50 268 50L368 50L361 10Q338 2 303-4Q268-10 238-10Q187-10 152.50 2.50Q118 15 99.50 45Q81 75 78 125Q75 175 89 250Q102 325 122 375Q142 425 170 455Q198 485 235 497.50Q272 510 319 510Q349 510 382 504Q415 498 436 490L429 450L329 450M276 690L325 616L401 690L461 690L363 560L268 560L216 690L276 690Z"  horiz-adv-x="375" vert-adv-y="1000"  />

      
      <glyph glyph-name="uni0112" unicode="&#x0112;" d="M172 70L422 70L410 0L70 0L193 700L533 700L521 630L271 630L230 400L450 400L438 330L218 330L172 70M270 830L500 830L489 770L259 770L270 830Z"  horiz-adv-x="450" vert-adv-y="1000"  />

      
      <glyph glyph-name="uni0113" unicode="&#x0113;" d="M222 640L452 640L442 580L212 580L222 640M277 270Q319 270 344 291Q369 312 376 350Q385 399 364.50 427Q344 455 310 455Q289 455 270.50 446.50Q252 438 235.50 417Q219 396 205.50 360Q192 324 182 270L277 270M172 210Q155 120 181.50 85Q208 50 283 50L383 50L376 10Q353 2 318-4Q283-10 253-10Q197-10 159 2.50Q121 15 101 45Q81 75 78 125Q75 175 89 250Q102 325 122 375Q142 425 170 455Q198 485 235 497.50Q272 510 319 510Q406 510 443 467.50Q480 425 466 350Q454 282 407.50 246Q361 210 267 210L172 210Z"  horiz-adv-x="435" vert-adv-y="1000"  />

      
      <glyph glyph-name="uni0116" unicode="&#x0116;" d="M172 70L422 70L410 0L70 0L193 700L533 700L521 630L271 630L230 400L450 400L438 330L218 330L172 70M445 880L425 770L335 770L355 880L445 880Z"  horiz-adv-x="450" vert-adv-y="1000"  />

      
      <glyph glyph-name="uni0117" unicode="&#x0117;" d="M384 680L365 570L275 570L294 680L384 680M277 270Q319 270 344 291Q369 312 376 350Q385 399 364.50 427Q344 455 310 455Q289 455 270.50 446.50Q252 438 235.50 417Q219 396 205.50 360Q192 324 182 270L277 270M172 210Q155 120 181.50 85Q208 50 283 50L383 50L376 10Q353 2 318-4Q283-10 253-10Q197-10 159 2.50Q121 15 101 45Q81 75 78 125Q75 175 89 250Q102 325 122 375Q142 425 170 455Q198 485 235 497.50Q272 510 319 510Q406 510 443 467.50Q480 425 466 350Q454 282 407.50 246Q361 210 267 210L172 210Z"  horiz-adv-x="435" vert-adv-y="1000"  />

      
      <glyph glyph-name="uni0118" unicode="&#x0118;" d="M70 0L193 700L533 700L521 630L271 630L230 400L450 400L438 330L218 330L172 70L422 70L410 0L365 0L357-45Q351-79 361.50-91.50Q372-104 406-104L441-104L434-145Q424-149 412-153Q401-156 387-158Q373-160 356-160Q314-160 296.50-139Q279-118 285-80Q288-63 294.50-48.50Q301-34 308-23Q316-11 325 0L70 0Z"  horiz-adv-x="450" vert-adv-y="1000"  />

      
      <glyph glyph-name="uni0119" unicode="&#x0119;" d="M172 210Q155 120 181.50 85Q208 50 283 50L383 50L376 10Q353 2 318-4Q283-10 253-10L247-45Q241-79 251.50-91.50Q262-104 296-104L331-104L324-145Q314-149 302-153Q291-156 277-158Q263-160 246-160Q204-160 186.50-139Q169-118 175-80Q180-55 190-36Q200-17 207-7Q164-3 135.50 13Q107 29 93 59Q79 89 78 136Q77 183 89 250Q102 325 122 375Q142 425 170 455Q198 485 235 497.50Q272 510 319 510Q406 510 443 467.50Q480 425 466 350Q454 282 407.50 246Q361 210 267 210L172 210M277 270Q319 270 344 291Q369 312 376 350Q385 399 364.50 427Q344 455 310 455Q289 455 270.50 446.50Q252 438 235.50 417Q219 396 205.50 360Q192 324 182 270L277 270Z"  horiz-adv-x="435" vert-adv-y="1000"  />

      
      <glyph glyph-name="uni011E" unicode="&#x011E;" d="M441 10Q418 2 375.50-4Q333-10 288-10Q228-10 186 7Q144 24 121 65Q98 106 95.50 175.50Q93 245 111 350Q130 455 157 524.50Q184 594 219.50 635Q255 676 298.50 693Q342 710 395 710Q440 710 480 704Q520 698 541 690L533 645L403 645Q369 645 339 632Q309 619 283.50 585.50Q258 552 237.50 495Q217 438 201 350Q186 262 187 205Q188 148 203.50 114.50Q219 81 248.50 68Q278 55 319 55L359 55L417 380L507 380L441 10M416 830Q450 830 478 845Q506 860 524 875L557 835Q532 801 492.50 780.50Q453 760 404 760Q355 760 322.50 780.50Q290 801 277 835L324 875Q336 860 359 845Q382 830 416 830Z"  horiz-adv-x="505" vert-adv-y="1000"  />

      
      <glyph glyph-name="uni011F" unicode="&#x011F;" d="M312 15Q288 4 263-3Q238-10 208-10Q169-10 140 2.50Q111 15 95.50 45Q80 75 77.50 125Q75 175 89 250Q102 325 122 375Q142 425 171.50 455Q201 485 239.50 497.50Q278 510 329 510Q374 510 411.50 502.50Q449 495 484 480L407 40Q394-31 374-79Q354-127 324.50-156Q295-185 254.50-197.50Q214-210 162-210Q132-210 99.50-204Q67-198 46-190L53-150L153-150Q187-150 213-142Q239-134 258-114.50Q277-95 290.50-63.50Q304-32 312 15M389 450L319 450Q295 450 274 441Q253 432 235.50 409.50Q218 387 203.50 348.50Q189 310 179 250Q168 190 168.50 151Q169 112 178.50 89.50Q188 67 206 58.50Q224 50 248 50Q267 50 288 56Q309 62 322 70L389 450M342 640Q372 640 399.50 652.50Q427 665 444 680L477 640Q453 610 416 590Q379 570 330 570Q281 570 251 590Q221 610 207 640L254 680Q267 665 289.50 652.50Q312 640 342 640Z"  horiz-adv-x="465" vert-adv-y="1000"  />

      
      <glyph glyph-name="uni0122" unicode="&#x0122;" d="M217-70L307-70L251-220L191-220L217-70M441 10Q418 2 375.50-4Q333-10 288-10Q228-10 186 7Q144 24 121 65Q98 106 95.50 175.50Q93 245 111 350Q130 455 157 524.50Q184 594 219.50 635Q255 676 298.50 693Q342 710 395 710Q440 710 480 704Q520 698 541 690L533 645L403 645Q369 645 339 632Q309 619 283.50 585.50Q258 552 237.50 495Q217 438 201 350Q186 262 187 205Q188 148 203.50 114.50Q219 81 248.50 68Q278 55 319 55L359 55L417 380L507 380L441 10Z"  horiz-adv-x="500" vert-adv-y="1000"  />

      
      <glyph glyph-name="uni0123" unicode="&#x0123;" d="M380 570L290 570L346 720L406 720L380 570M312 15Q288 4 263-3Q238-10 208-10Q169-10 140 2.50Q111 15 95.50 45Q80 75 77.50 125Q75 175 89 250Q102 325 122 375Q142 425 171.50 455Q201 485 239.50 497.50Q278 510 329 510Q374 510 411.50 502.50Q449 495 484 480L407 40Q394-31 374-79Q354-127 324.50-156Q295-185 254.50-197.50Q214-210 162-210Q132-210 99.50-204Q67-198 46-190L53-150L153-150Q187-150 213-142Q239-134 258-114.50Q277-95 290.50-63.50Q304-32 312 15M389 450L319 450Q295 450 274 441Q253 432 235.50 409.50Q218 387 203.50 348.50Q189 310 179 250Q168 190 168.50 151Q169 112 178.50 89.50Q188 67 206 58.50Q224 50 248 50Q267 50 288 56Q309 62 322 70L389 450Z"  horiz-adv-x="465" vert-adv-y="1000"  />

      
      <glyph glyph-name="uni0127" unicode="&#x0127;" d="M266 545L250 455Q274 466 302 473Q330 480 364 480Q396 480 421.50 473.50Q447 467 463.50 450Q480 433 485.50 404Q491 375 483 330L425 0L335 0L393 330Q397 356 393 373.50Q389 391 378.50 401.50Q368 412 351.50 416Q335 420 314 420Q295 420 274 414Q253 408 240 400L170 0L80 0L176 545L116 545L127 610L187 610L203 700L293 700L277 610L417 610L409 565Q385 557 350.50 551Q316 545 286 545L266 545Z"  horiz-adv-x="490" vert-adv-y="1000"  />

      
      <glyph glyph-name="uni0128" unicode="&#x0128;" d="M283 700L160 0L70 0L193 700L283 700M319 765Q324 788 318.50 799Q313 810 302 810Q293 810 283 800.50Q273 791 261.50 780Q250 769 235.50 759.50Q221 750 202 750Q164 750 149.50 774Q135 798 145 855L195 855Q187 810 212 810Q221 810 231 819.50Q241 829 253 840Q265 851 279.50 860.50Q294 870 313 870Q351 870 365.50 846Q380 822 369 765L319 765Z"  horiz-adv-x="230" vert-adv-y="1000"  />

      
      <glyph glyph-name="uni0129" unicode="&#x0129;" d="M160 0L70 0L158 500L248 500L160 0M282 580Q289 625 265 625Q256 625 246 615.50Q236 606 224 595Q212 584 197.50 574.50Q183 565 164 565Q126 565 111.50 589Q97 613 108 670L158 670Q153 647 158.50 636Q164 625 175 625Q184 625 194 634.50Q204 644 215.50 655Q227 666 241.50 675.50Q256 685 275 685Q313 685 327.50 661Q342 637 332 580L282 580Z"  horiz-adv-x="230" vert-adv-y="1000"  />

      
      <glyph glyph-name="uni012A" unicode="&#x012A;" d="M278 700L155 0L65 0L188 700L278 700M139 820L369 820L359 760L129 760L139 820Z"  horiz-adv-x="220" vert-adv-y="1000"  />

      
      <glyph glyph-name="uni012B" unicode="&#x012B;" d="M160 0L70 0L158 500L248 500L160 0M112 640L342 640L332 580L102 580L112 640Z"  horiz-adv-x="230" vert-adv-y="1000"  />

      
      <glyph glyph-name="uni012E" unicode="&#x012E;" d="M188 700L278 700L155 0L115 0L107-45Q101-79 111.50-91.50Q122-104 156-104L191-104L184-145Q174-149 162-153Q151-156 137-158Q123-160 106-160Q64-160 46.50-139Q29-118 35-80Q38-63 44.50-48.50Q51-34 58-23Q66-11 75 0L65 0L188 700Z"  horiz-adv-x="220" vert-adv-y="1000"  />

      
      <glyph glyph-name="uni012F" unicode="&#x012F;" d="M153 500L243 500L155 0L115 0L107-45Q101-79 111.50-91.50Q122-104 156-104L191-104L184-145Q174-149 162-153Q151-156 137-158Q123-160 106-160Q64-160 46.50-139Q29-118 35-80Q38-63 44.50-48.50Q51-34 58-23Q66-11 75 0L65 0L153 500M274 680L253 560L163 560L184 680L274 680Z"  horiz-adv-x="220" vert-adv-y="1000"  />

      
      <glyph glyph-name="uni0130" unicode="&#x0130;" d="M283 700L160 0L70 0L193 700L283 700M315 880L295 770L205 770L225 880L315 880Z"  horiz-adv-x="230" vert-adv-y="1000"  />

      
      <glyph glyph-name="uni0131" unicode="&#x0131;" d="M160 0L70 0L158 500L248 500L160 0Z"  horiz-adv-x="230" vert-adv-y="1000"  />

      
      <glyph glyph-name="uni0133" unicode="&#x0133;" d="M382-40Q373-93 356.50-126Q340-159 318-177.50Q296-196 269-203Q242-210 212-210Q189-210 166-204Q143-198 126-190L133-150L203-150Q214-150 227.50-145.50Q241-141 253.50-129Q266-117 276-95.50Q286-74 292-40L376 435L236 435L160 0L70 0L158 500L478 500L382-40M509 680L490 570L400 570L419 680L509 680M279 680L260 570L170 570L189 680L279 680Z"  horiz-adv-x="460" vert-adv-y="1000"  />

      
      <glyph glyph-name="uni0134" unicode="&#x0134;" d="M99 55Q125 55 147 63.50Q169 72 187 93Q205 114 218.50 150Q232 186 242 240L323 700L413 700L332 240Q319 169 299 121Q279 73 249.50 44Q220 15 180 2.50Q140-10 88-10Q65-10 42-4Q19 2 1 10L9 55L99 55M253 740L351 870L446 870L498 740L438 740L388 814L313 740L253 740Z"  horiz-adv-x="353" vert-adv-y="1000"  />

      
      <glyph glyph-name="uni0135" unicode="&#x0135;" d="M162-40Q153-93 136.50-126Q120-159 98-177.50Q76-196 49.50-203Q23-210-7-210Q-30-210-53-204Q-76-198-93-190L-86-150L-16-150Q-5-150 8-145.50Q21-141 33.50-129Q46-117 56-95.50Q66-74 72-40L168 500L258 500L162-40M96 550L194 680L289 680L341 550L281 550L232 624L156 550L96 550Z"  horiz-adv-x="240" vert-adv-y="1000"  />

      
      <glyph glyph-name="uni0136" unicode="&#x0136;" d="M201-50L291-50L234-200L174-200L201-50M480 0L375 0L221 350L160 0L70 0L193 700L283 700L223 360L478 700L583 700L317 355L480 0Z"  horiz-adv-x="490" vert-adv-y="1000"  />

      
      <glyph glyph-name="uni0137" unicode="&#x0137;" d="M205 260L160 0L70 0L193 700L283 700L207 270L393 500L493 500L296 265L425 0L325 0L205 260M179-60L269-60L212-210L152-210L179-60Z"  horiz-adv-x="435" vert-adv-y="1000"  />

      
      <glyph glyph-name="uni0138" unicode="&#x0138;" d="M205 260L160 0L70 0L158 500L248 500L207 270L393 500L493 500L296 265L425 0L325 0L205 260Z"  horiz-adv-x="435" vert-adv-y="1000"  />

      
      <glyph glyph-name="uni013B" unicode="&#x013B;" d="M189-60L279-60L222-210L162-210L189-60M172 70L422 70L410 0L70 0L193 700L283 700L172 70Z"  horiz-adv-x="420" vert-adv-y="1000"  />

      
      <glyph glyph-name="uni013C" unicode="&#x013C;" d="M59-60L149-60L92-210L32-210L59-60M193 700L283 700L160 0L70 0L193 700Z"  horiz-adv-x="230" vert-adv-y="1000"  />

      
      <glyph glyph-name="uni0140" unicode="&#x0140;" d="M193 700L283 700L160 0L70 0L193 700M381 405L362 295L272 295L291 405L381 405Z"  horiz-adv-x="360" vert-adv-y="1000"  />

      
      <glyph glyph-name="uni0141" unicode="&#x0141;" d="M240 430L307 470L334 420L227 355L177 70L427 70L415 0L75 0L126 290L69 255L43 305L139 365L198 700L288 700L240 430Z"  horiz-adv-x="425" vert-adv-y="1000"  />

      
      <glyph glyph-name="uni0142" unicode="&#x0142;" d="M85 0L136 290L79 255L53 305L149 365L208 700L298 700L250 430L317 470L344 420L237 355L175 0L85 0Z"  horiz-adv-x="270" vert-adv-y="1000"  />

      
      <glyph glyph-name="uni0143" unicode="&#x0143;" d="M372 750L430 880L525 880L432 750L372 750M160 0L70 0L193 700L293 700L411 205L416 205L503 700L593 700L470 0L370 0L252 495L247 495L160 0Z"  horiz-adv-x="540" vert-adv-y="1000"  />

      
      <glyph glyph-name="uni0144" unicode="&#x0144;" d="M155 0L65 0L153 500L228 500L227 470L232 470Q255 489 284.50 499.50Q314 510 344 510Q380 510 407.50 503.50Q435 497 452 480Q469 463 475 434Q481 405 473 360L410 0L320 0L383 360Q387 386 383 403.50Q379 421 368.50 431.50Q358 442 341.50 446Q325 450 304 450Q285 450 264 444Q243 438 230 430L155 0M303 560L361 690L456 690L363 560L303 560Z"  horiz-adv-x="475" vert-adv-y="1000"  />

      
      <glyph glyph-name="uni0145" unicode="&#x0145;" d="M211-50L301-50L244-200L184-200L211-50M160 0L70 0L193 700L293 700L411 205L416 205L503 700L593 700L470 0L370 0L252 495L247 495L160 0Z"  horiz-adv-x="540" vert-adv-y="1000"  />

      
      <glyph glyph-name="uni0146" unicode="&#x0146;" d="M184-60L274-60L217-210L157-210L184-60M155 0L65 0L153 500L228 500L227 470L232 470Q255 489 284.50 499.50Q314 510 344 510Q380 510 407.50 503.50Q435 497 452 480Q469 463 475 434Q481 405 473 360L410 0L320 0L383 360Q387 386 383 403.50Q379 421 368.50 431.50Q358 442 341.50 446Q325 450 304 450Q285 450 264 444Q243 438 230 430L155 0Z"  horiz-adv-x="475" vert-adv-y="1000"  />

      
      <glyph glyph-name="uni014C" unicode="&#x014C;" d="M390 710Q441 710 478 693Q515 676 535 635Q555 594 557.50 524.50Q560 455 541 350Q523 245 496 175.50Q469 106 434 65Q399 24 356.50 7Q314-10 263-10Q212-10 175 7Q138 24 118 65Q98 106 95.50 175.50Q93 245 111 350Q130 455 157 524.50Q184 594 219 635Q254 676 296.50 693Q339 710 390 710M273 50Q297 50 322 63Q347 76 370.50 110Q394 144 414.50 202Q435 260 451 350Q467 440 467 498Q467 556 455.50 590Q444 624 423.50 637Q403 650 379 650Q355 650 330 637Q305 624 281.50 590Q258 556 237.50 498Q217 440 201 350Q185 260 185.50 202Q186 144 197 110Q208 76 228.50 63Q249 50 273 50M296 830L526 830L515 770L285 770L296 830Z"  horiz-adv-x="530" vert-adv-y="1000"  />

      
      <glyph glyph-name="uni014D" unicode="&#x014D;" d="M184 250Q173 190 173.50 150.50Q174 111 183 87.50Q192 64 207.50 54.50Q223 45 242 45Q261 45 280 54.50Q299 64 316 87.50Q333 111 348 150.50Q363 190 374 250Q384 310 383.50 349.50Q383 389 374 412.50Q365 436 349.50 445.50Q334 455 315 455Q296 455 277 445.50Q258 436 241 412.50Q224 389 209 349.50Q194 310 184 250M94 250Q107 323 127.50 373Q148 423 176.50 453.50Q205 484 242 497Q279 510 324 510Q369 510 401.50 497Q434 484 452 453.50Q470 423 473.50 373Q477 323 464 250Q451 177 430 127Q409 77 380.50 46.50Q352 16 315 3Q278-10 233-10Q188-10 155.50 3Q123 16 105 46.50Q87 77 84 127Q81 177 94 250M232 640L462 640L452 580L222 580L232 640Z"  horiz-adv-x="470" vert-adv-y="1000"  />

      
      <glyph glyph-name="uni0152" unicode="&#x0152;" d="M823 700L811 630L561 630L520 400L740 400L728 330L508 330L462 70L712 70L700 0L330 0Q259 0 208 19.50Q157 39 127.50 81Q98 123 91 189.50Q84 256 101 350Q117 444 147.50 510.50Q178 577 222 619Q266 661 324 680.50Q382 700 453 700L823 700M471 630L441 630Q392 630 352 616Q312 602 281 569Q250 536 227.50 482.50Q205 429 191 350Q177 271 180.50 217.50Q184 164 203.50 131Q223 98 258 84Q293 70 342 70L372 70L471 630Z"  horiz-adv-x="740" vert-adv-y="1000"  />

      
      </font>
</defs>
</svg>
